<svg width="20" height="20" fill="none" xmlns="http://www.w3.org/2000/svg"><g clip-path="url(#clip0)"><path d="M4.852 20c-1.278 0-2.484-.506-3.415-1.437-.975-.974-1.484-2.252-1.434-3.596.052-1.388.68-2.722 1.814-3.857L3.86 9.06a.781.781 0 111.107 1.102l-2.044 2.053c-1.657 1.657-1.813 3.813-.381 5.245 1.432 1.431 3.588 1.275 5.243-.38l2.808-2.809c.851-.85 1.32-1.823 1.358-2.81.033-.905-.314-1.77-.978-2.433a3.459 3.459 0 00-.731-.561.781.781 0 11.773-1.358c.384.22.742.493 1.063.814.975.975 1.484 2.252 1.434 3.596-.052 1.389-.679 2.722-1.814 3.857L8.89 18.183c-1.135 1.135-2.468 1.762-3.857 1.814-.06.002-.12.003-.181.003zm5.198-7.4a.781.781 0 00-.292-1.065 3.46 3.46 0 01-.732-.56c-1.432-1.433-1.275-3.589.38-5.244l2.808-2.808c1.656-1.656 3.812-1.812 5.244-.38 1.432 1.431 1.275 3.587-.381 5.244L15.031 9.84a.781.781 0 001.107 1.102l2.044-2.051c1.134-1.135 1.762-2.469 1.813-3.857.05-1.344-.459-2.622-1.433-3.596C17.588.463 16.31-.046 14.967.004c-1.389.052-2.723.679-3.857 1.814L8.3 4.626C7.167 5.76 6.54 7.094 6.488 8.483c-.05 1.344.459 2.621 1.433 3.596a5.02 5.02 0 001.063.814.778.778 0 001.066-.292z" fill="#000"/></g><defs><clipPath id="clip0"><path fill="#fff" d="M0 0h20v20H0z"/></clipPath></defs></svg>