<svg width="23" height="23" fill="none" xmlns="http://www.w3.org/2000/svg"><path d="M16.774 0H6.226A6.233 6.233 0 000 6.226v10.548A6.233 6.233 0 006.226 23h10.548A6.233 6.233 0 0023 16.774V6.226A6.233 6.233 0 0016.774 0zm4.878 16.774a4.883 4.883 0 01-4.878 4.878H6.226a4.883 4.883 0 01-4.878-4.878V6.226a4.883 4.883 0 014.878-4.878h10.548a4.883 4.883 0 014.878 4.878v10.548z" fill="#fff"/><path d="M11.5 5.21a6.296 6.296 0 00-6.289 6.29 6.296 6.296 0 006.29 6.289 6.296 6.296 0 006.288-6.29A6.296 6.296 0 0011.5 5.212zm0 11.23a4.946 4.946 0 01-4.94-4.94 4.946 4.946 0 014.94-4.94 4.946 4.946 0 014.94 4.94 4.946 4.946 0 01-4.94 4.94zm6.44-13.462a1.86 1.86 0 00-1.86 1.858 1.86 1.86 0 001.86 1.858 1.86 1.86 0 001.858-1.858 1.86 1.86 0 00-1.859-1.858zm0 2.368a.51.51 0 110-1.021.51.51 0 010 1.02z" fill="#fff"/></svg>