<svg width="25" height="25" fill="none" xmlns="http://www.w3.org/2000/svg"><path d="M18.75 10.156h-1.563a2.346 2.346 0 00-2.343-2.344V6.25a3.91 3.91 0 013.906 3.906z" fill="#2C64E5"/><path d="M21.875 10.156h-1.563a5.475 5.475 0 00-5.468-5.469V3.125a7.04 7.04 0 017.031 7.031zm-5.99 6.627l1.75-1.75a1.693 1.693 0 011.826-.375l2.131.853a1.693 1.693 0 011.064 1.572v3.876a1.693 1.693 0 01-1.784 1.694C5.932 21.723 2.916 9.07 2.355 4.225a1.69 1.69 0 011.683-1.881h3.807a1.693 1.693 0 011.572 1.064l.853 2.131a1.693 1.693 0 01-.375 1.826l-1.75 1.75s.97 6.822 7.74 7.668z" fill="#2C64E5"/></svg>