<svg width="76" height="33" fill="none" xmlns="http://www.w3.org/2000/svg"><path fill-rule="evenodd" clip-rule="evenodd" d="M.858 24.614h68.066l3.767 4.178-4.748 4.178L0 33l.858-8.386z" fill="#E40044"/><path fill-rule="evenodd" clip-rule="evenodd" d="M76 .297l-.827 8.206-8.516-.03.214-2.014h-4.196l-1.042 10.31 4.227.03.246-2.074 8.454-.03-.888 8.296-21.045-.03L54.894.297H76zm-23.373 0l-2.328 22.724-8.394.03L43.59 6.489h-4.258l-1.654 16.532-8.332-.03L31.643.297h20.984zM18.778 6.489h-3.032l-3.094 10.31h5.115l1.011-10.31zm7.352 10.34h1.685l-.643 6.192H2.94v-.03H1.256l.613-6.192h2.42L9.282.297h18.533L26.13 16.83z" fill="#000"/><path fill-rule="evenodd" clip-rule="evenodd" d="M44.663 27.62h.95l-.093.84h-.95l.093-.84zm-.245 2.404h2.91l.398-3.817h-4.84l-.52 5.23h1.929l.122-1.413zm18.777 0h.95l.092-.842h-.95l-.092.842zm.215-2.254h2.91l-.368 3.697h-4.84l.521-5.26h1.93l-.153 1.563zm-4.289-1.563l.92 5.23h-1.93l-.46-2.736-1.011 2.736H55.2l1.991-5.23h1.93zm-7.045 1.412h-.98l-.246 2.375h.98l.246-2.375zm2.083-1.412l-.552 5.23h-4.84l.521-5.23h4.87zm-16.726 5.23l.398-3.818h-1.5l.153-1.412h4.809l-.153 1.412h-1.38l-.092 1.022v.12l-.03.15-.245 2.496-1.96.03zm-2.205-5.23l-.521 5.23h-1.93l.184-1.924h-.98l-.184 1.894h-1.93l.52-5.23h1.93l-.153 1.412-.06.481h.98l.06-.48.154-1.413h1.93v.03zm-8.516 1.412h-.98l-.245 2.375h.98l.245-2.375zm2.083-1.412l-.552 5.23h-4.84l.521-5.23h4.87zm-11.824 5.23l.52-5.26h1.96l-.183 1.923 1.164-1.924h1.96L21.199 28.1h.98l-.337 3.337h-1.93l.184-1.894h-1.01l-.185 1.894h-1.93zm-2.574-1.443h1.532l-.153 1.443h-1.532l.153-1.443zm-2.695-2.375l-.062.631-.183 1.744h1.715l-.153 1.443H9.374l.52-5.23h1.93l-.122 1.412zm-7.29 3.818l-.92-5.23h1.93l.46 2.735 1.01-2.735h1.44l-1.991 5.23h-1.93z" fill="#fff"/></svg>