<svg xmlns="http://www.w3.org/2000/svg"><defs><clipPath id="clip0"><path fill="#fff" d="M0 0h20v20H0z"/></clipPath></defs><symbol id="icon-arr-big" viewBox="0 0 13 22"><path d="M2 2.143l9.166 8.88-8.881 9.166"/></symbol><symbol id="icon-arr-down" viewBox="0 0 11 11"><path fill-rule="evenodd" clip-rule="evenodd" d="M5.56.314a.658.658 0 01.66.655l.026 7.624L9.06 5.758a.659.659 0 11.934.929L6.06 10.648a.659.659 0 01-.932.003l-3.96-3.935a.659.659 0 01.928-.934L4.93 8.598 4.904.974a.658.658 0 01.656-.66z" fill="#B8D3CF"/></symbol><symbol id="icon-arr" viewBox="0 0 6 9"><path d="M1 1l4 3.5L1 8" stroke="#000" stroke-width="1.2" stroke-linecap="round" stroke-linejoin="round"/></symbol><symbol id="icon-arr_long" viewBox="0 0 11 11"><path fill-rule="evenodd" clip-rule="evenodd" d="M.314 5.603a.658.658 0 01.654-.662l7.624-.035-2.839-2.811a.659.659 0 11.928-.936l3.966 3.93a.658.658 0 01.005.93l-3.93 3.967a.66.66 0 01-.936-.927l2.812-2.837-7.623.036a.658.658 0 01-.661-.655z"/></symbol><symbol id="icon-arr_short" viewBox="0 0 6 9"><path d="M1 1l4 3.5L1 8" stroke="#fff" stroke-width="1.2" stroke-linecap="round" stroke-linejoin="round"/></symbol><symbol id="icon-burger" viewBox="0 0 34 17"><rect width="34" height="3.4" rx="1.7" fill="#2B2525"/><rect y="6.8" width="25.5" height="3.4" rx="1.7" fill="#2B2525"/><rect y="13.6" width="15.3" height="3.4" rx="1.7" fill="#2B2525"/></symbol><symbol id="icon-insta" viewBox="0 0 23 23"><path d="M16.774 0H6.226A6.233 6.233 0 000 6.226v10.548A6.233 6.233 0 006.226 23h10.548A6.233 6.233 0 0023 16.774V6.226A6.233 6.233 0 0016.774 0zm4.878 16.774a4.883 4.883 0 01-4.878 4.878H6.226a4.883 4.883 0 01-4.878-4.878V6.226a4.883 4.883 0 014.878-4.878h10.548a4.883 4.883 0 014.878 4.878v10.548z"/><path d="M11.5 5.21a6.296 6.296 0 00-6.289 6.29 6.296 6.296 0 006.29 6.289 6.296 6.296 0 006.288-6.29A6.296 6.296 0 0011.5 5.212zm0 11.23a4.946 4.946 0 01-4.94-4.94 4.946 4.946 0 014.94-4.94 4.946 4.946 0 014.94 4.94 4.946 4.946 0 01-4.94 4.94zm6.44-13.462a1.86 1.86 0 00-1.86 1.858 1.86 1.86 0 001.86 1.858 1.86 1.86 0 001.858-1.858 1.86 1.86 0 00-1.859-1.858zm0 2.368a.51.51 0 110-1.021.51.51 0 010 1.02z"/></symbol><symbol id="icon-phone" viewBox="0 0 25 25"><path d="M18.75 10.156h-1.563a2.346 2.346 0 00-2.343-2.344V6.25a3.91 3.91 0 013.906 3.906z" fill="#2C64E5"/><path d="M21.875 10.156h-1.563a5.475 5.475 0 00-5.468-5.469V3.125a7.04 7.04 0 017.031 7.031zm-5.99 6.627l1.75-1.75a1.693 1.693 0 011.826-.375l2.131.853a1.693 1.693 0 011.064 1.572v3.876a1.693 1.693 0 01-1.784 1.694C5.932 21.723 2.916 9.07 2.355 4.225a1.69 1.69 0 011.683-1.881h3.807a1.693 1.693 0 011.572 1.064l.853 2.131a1.693 1.693 0 01-.375 1.826l-1.75 1.75s.97 6.822 7.74 7.668z" fill="#2C64E5"/></symbol><symbol id="icon-staple" viewBox="0 0 20 20"><g clip-path="url(#clip0)"><path d="M4.852 20c-1.278 0-2.484-.506-3.415-1.437-.975-.974-1.484-2.252-1.434-3.596.052-1.388.68-2.722 1.814-3.857L3.86 9.06a.781.781 0 111.107 1.102l-2.044 2.053c-1.657 1.657-1.813 3.813-.381 5.245 1.432 1.431 3.588 1.275 5.243-.38l2.808-2.809c.851-.85 1.32-1.823 1.358-2.81.033-.905-.314-1.77-.978-2.433a3.459 3.459 0 00-.731-.561.781.781 0 11.773-1.358c.384.22.742.493 1.063.814.975.975 1.484 2.252 1.434 3.596-.052 1.389-.679 2.722-1.814 3.857L8.89 18.183c-1.135 1.135-2.468 1.762-3.857 1.814-.06.002-.12.003-.181.003zm5.198-7.4a.781.781 0 00-.292-1.065 3.46 3.46 0 01-.732-.56c-1.432-1.433-1.275-3.589.38-5.244l2.808-2.808c1.656-1.656 3.812-1.812 5.244-.38 1.432 1.431 1.275 3.587-.381 5.244L15.031 9.84a.781.781 0 001.107 1.102l2.044-2.051c1.134-1.135 1.762-2.469 1.813-3.857.05-1.344-.459-2.622-1.433-3.596C17.588.463 16.31-.046 14.967.004c-1.389.052-2.723.679-3.857 1.814L8.3 4.626C7.167 5.76 6.54 7.094 6.488 8.483c-.05 1.344.459 2.621 1.433 3.596a5.02 5.02 0 001.063.814.778.778 0 001.066-.292z"/></g></symbol><symbol id="icon-star" viewBox="0 0 16 16"><path d="M14.19 5.517l-3.968-.576-1.773-3.595a.502.502 0 00-.897 0L5.778 4.94l-3.967.576a.499.499 0 00-.276.854l2.87 2.798-.678 3.951a.5.5 0 00.725.527L8 11.781l3.549 1.866a.5.5 0 00.725-.527l-.678-3.951 2.87-2.798a.499.499 0 00-.277-.854z" fill="#FEC353"/></symbol><symbol id="icon-tg" viewBox="0 0 24 28"><path d="M23.93 5.392l-3.62 17.435c-.273 1.23-.986 1.536-1.998.957l-5.518-4.151-2.663 2.614c-.294.3-.54.552-1.109.552l.397-5.736 10.227-9.434c.444-.405-.097-.629-.692-.224L6.311 15.53.868 13.792c-1.184-.377-1.206-1.208.246-1.788l21.29-8.373c.985-.377 1.848.225 1.526 1.761z"/></symbol></svg>