<svg xmlns="http://www.w3.org/2000/svg" xmlns:xlink="http://www.w3.org/1999/xlink"><symbol id="icon-arr_long" viewBox="0 0 11 11">
<path fill-rule="evenodd" clip-rule="evenodd" d="M0.313532 5.6026C0.312711 5.42808 0.381249 5.26039 0.504069 5.13641C0.626888 5.01243 0.793928 4.94232 0.968443 4.94149L8.59211 4.90563L5.75334 2.09476C5.69187 2.03387 5.643 1.96147 5.60952 1.88169C5.57603 1.80191 5.55859 1.71632 5.55818 1.6298C5.55777 1.54328 5.57441 1.45752 5.60714 1.37743C5.63988 1.29734 5.68806 1.22449 5.74896 1.16302C5.80985 1.10155 5.88225 1.05268 5.96203 1.0192C6.0418 0.98571 6.1274 0.968267 6.21392 0.96786C6.30044 0.967453 6.38619 0.98409 6.46628 1.01682C6.54637 1.04956 6.61923 1.09775 6.68069 1.15864L10.6473 5.0881C10.7089 5.14894 10.7578 5.22132 10.7914 5.30111C10.8249 5.38089 10.8424 5.46651 10.8428 5.55306C10.8432 5.63961 10.8265 5.72539 10.7938 5.80549C10.761 5.88559 10.7127 5.95843 10.6517 6.01984L6.72222 9.98645C6.66133 10.0479 6.58893 10.0968 6.50915 10.1303C6.42938 10.1638 6.34378 10.1812 6.25726 10.1816C6.17074 10.182 6.08499 10.1654 6.0049 10.1326C5.92481 10.0999 5.85195 10.0517 5.79049 9.99083C5.66635 9.86786 5.59615 9.70061 5.59533 9.52587C5.59492 9.43935 5.61156 9.3536 5.64429 9.27351C5.67702 9.19342 5.72521 9.12056 5.7861 9.0591L8.5983 6.22164L0.974634 6.25751C0.80012 6.25833 0.632427 6.18979 0.508446 6.06697C0.384466 5.94415 0.314353 5.77711 0.313532 5.6026Z" fill="white"/>
</symbol><symbol id="icon-arr_short" viewBox="0 0 6 9">
<path d="M1 1L5 4.5L1 8" stroke="white" stroke-width="1.2" stroke-linecap="round" stroke-linejoin="round"/>
</symbol><symbol id="icon-burger" viewBox="0 0 34 17">
<rect width="34" height="3.4" rx="1.7" fill="#2B2525"/>
<rect y="6.80005" width="25.5" height="3.4" rx="1.7" fill="#2B2525"/>
<rect y="13.6001" width="15.3" height="3.4" rx="1.7" fill="#2B2525"/>
</symbol><symbol id="icon-phone" viewBox="0 0 25 25">
<path d="M18.75 10.1562H17.1875C17.1869 9.53484 16.9398 8.93906 16.5003 8.49965C16.0609 8.06025 15.4652 7.81312 14.8438 7.8125V6.25C15.8794 6.25124 16.8722 6.66319 17.6045 7.39548C18.3368 8.12778 18.7488 9.12063 18.75 10.1562Z" fill="#2C64E5"/>
<path d="M21.875 10.1562H20.3125C20.3108 8.70636 19.7341 7.31632 18.7089 6.29109C17.6837 5.26586 16.2936 4.68915 14.8438 4.6875V3.125C16.7079 3.12707 18.4951 3.86852 19.8133 5.18669C21.1315 6.50486 21.8729 8.29208 21.875 10.1562Z" fill="#2C64E5"/>
<path d="M15.8851 16.7828L17.6351 15.0328C17.8694 14.7985 18.1672 14.6381 18.4918 14.5714C18.8163 14.5048 19.1533 14.5348 19.4609 14.6578L21.5922 15.5109C21.9063 15.6366 22.1756 15.8536 22.3652 16.1337C22.5549 16.4139 22.6562 16.7445 22.6562 17.0828V20.9586C22.6568 21.189 22.6103 21.417 22.5197 21.6288C22.429 21.8406 22.2961 22.0316 22.1291 22.1902C21.962 22.3489 21.7644 22.4718 21.5482 22.5513C21.332 22.6309 21.1019 22.6656 20.8719 22.6531C5.9328 21.7234 2.91561 9.07032 2.35545 4.22501C2.32832 3.98813 2.35165 3.74819 2.4239 3.52097C2.49615 3.29376 2.61569 3.08441 2.77465 2.90671C2.93361 2.729 3.12839 2.58696 3.34618 2.48994C3.56397 2.39291 3.79984 2.34309 4.03827 2.34376H7.8453C8.18363 2.34375 8.51421 2.44511 8.79439 2.63477C9.07456 2.82443 9.29149 3.09369 9.41717 3.40782L10.2695 5.53907C10.3925 5.84671 10.4226 6.18367 10.3559 6.50821C10.2892 6.83275 10.1288 7.1306 9.89452 7.36485L8.14452 9.11485C8.14452 9.11485 9.11483 15.9367 15.8851 16.7828Z" fill="#2C64E5"/>
</symbol><symbol id="icon-star" viewBox="0 0 16 16">
<path d="M14.1892 5.51739L10.222 4.94083L8.44859 1.34551C8.40015 1.24708 8.32046 1.16739 8.22203 1.11895C7.97515 0.997076 7.67515 1.09864 7.55171 1.34551L5.77828 4.94083L1.81109 5.51739C1.70171 5.53301 1.60171 5.58458 1.52515 5.6627C1.43259 5.75784 1.38159 5.88583 1.38334 6.01855C1.3851 6.15127 1.43948 6.27786 1.53453 6.37051L4.40484 9.16895L3.72671 13.1205C3.71081 13.2124 3.72098 13.307 3.75608 13.3934C3.79117 13.4798 3.84978 13.5547 3.92526 13.6095C4.00074 13.6644 4.09007 13.6969 4.18312 13.7036C4.27617 13.7102 4.36922 13.6906 4.45171 13.6471L8.00015 11.7815L11.5486 13.6471C11.6455 13.6986 11.758 13.7158 11.8658 13.6971C12.1377 13.6502 12.3205 13.3924 12.2736 13.1205L11.5955 9.16895L14.4658 6.37051C14.5439 6.29395 14.5955 6.19395 14.6111 6.08458C14.6533 5.81114 14.4627 5.55801 14.1892 5.51739Z" fill="#FEC353"/>
</symbol><symbol id="icon-tg" viewBox="0 0 24 28">
<path d="M23.9302 5.39232L20.3088 22.8267C20.0356 24.0572 19.3231 24.3634 18.3106 23.7837L12.7927 19.6329L10.1302 22.247C9.83557 22.5478 9.58914 22.7993 9.02129 22.7993L9.41772 17.0626L19.6445 7.62904C20.0891 7.22435 19.5481 7.00013 18.9534 7.40482L6.31057 15.5314L0.867715 13.7923C-0.316214 13.415 -0.337642 12.5837 1.11414 12.004L22.4034 3.63138C23.3891 3.25404 24.2516 3.8556 23.9302 5.39232Z" fill="white"/>
</symbol></svg>