<svg xmlns="http://www.w3.org/2000/svg"><symbol id="icon-arr-big" viewBox="0 0 13 22"><path d="M2 2.143l9.166 8.88-8.881 9.166"/></symbol><symbol id="icon-arr-down" viewBox="0 0 11 11"><path fill-rule="evenodd" clip-rule="evenodd" d="M5.56.314a.658.658 0 01.66.655l.026 7.624L9.06 5.758a.659.659 0 11.934.929L6.06 10.648a.659.659 0 01-.932.003l-3.96-3.935a.659.659 0 01.928-.934L4.93 8.598 4.904.974a.658.658 0 01.656-.66z" fill="#B8D3CF"/></symbol><symbol id="icon-arr" viewBox="0 0 6 9"><path d="M1 1l4 3.5L1 8" stroke="#000" stroke-width="1.2" stroke-linecap="round" stroke-linejoin="round"/></symbol><symbol id="icon-arr_long" viewBox="0 0 11 11"><path fill-rule="evenodd" clip-rule="evenodd" d="M.314 5.603a.658.658 0 01.654-.662l7.624-.035-2.839-2.811a.659.659 0 11.928-.936l3.966 3.93a.658.658 0 01.005.93l-3.93 3.967a.66.66 0 01-.936-.927l2.812-2.837-7.623.036a.658.658 0 01-.661-.655z"/></symbol><symbol id="icon-arr_short" viewBox="0 0 6 9"><path d="M1 1l4 3.5L1 8" stroke="#fff" stroke-width="1.2" stroke-linecap="round" stroke-linejoin="round"/></symbol><symbol id="icon-burger" viewBox="0 0 34 17"><rect width="34" height="3.4" rx="1.7" fill="#2B2525"/><rect y="6.8" width="25.5" height="3.4" rx="1.7" fill="#2B2525"/><rect y="13.6" width="15.3" height="3.4" rx="1.7" fill="#2B2525"/></symbol><symbol id="icon-close" viewBox="0 0 36 36"><path d="M19.41 18l7.29-7.29a1 1 0 00-1.41-1.41L18 16.59l-7.29-7.3A1 1 0 009.3 10.7l7.29 7.3-7.3 7.29a1.001 1.001 0 101.41 1.41l7.3-7.29 7.29 7.29a1 1 0 001.41-1.41L19.41 18z"/></symbol><symbol id="icon-insta" viewBox="0 0 23 23"><path d="M16.774 0H6.226A6.233 6.233 0 000 6.226v10.548A6.233 6.233 0 006.226 23h10.548A6.233 6.233 0 0023 16.774V6.226A6.233 6.233 0 0016.774 0zm4.878 16.774a4.883 4.883 0 01-4.878 4.878H6.226a4.883 4.883 0 01-4.878-4.878V6.226a4.883 4.883 0 014.878-4.878h10.548a4.883 4.883 0 014.878 4.878v10.548z"/><path d="M11.5 5.21a6.296 6.296 0 00-6.289 6.29 6.296 6.296 0 006.29 6.289 6.296 6.296 0 006.288-6.29A6.296 6.296 0 0011.5 5.212zm0 11.23a4.946 4.946 0 01-4.94-4.94 4.946 4.946 0 014.94-4.94 4.946 4.946 0 014.94 4.94 4.946 4.946 0 01-4.94 4.94zm6.44-13.462a1.86 1.86 0 00-1.86 1.858 1.86 1.86 0 001.86 1.858 1.86 1.86 0 001.858-1.858 1.86 1.86 0 00-1.859-1.858zm0 2.368a.51.51 0 110-1.021.51.51 0 010 1.02z"/></symbol><symbol id="icon-menu-arr" viewBox="0 0 8 14"><path d="M1 1l6 6-6 6" stroke="#9096A3" stroke-linecap="round" stroke-linejoin="round"/></symbol><symbol id="icon-menu1" viewBox="0 0 21 21"><g clip-path="url(#clip0)"><path d="M2.172 15.207H.724v-3.259L0 10.862V9.776L.724 8.69h1.448v6.517z" fill="#DE4C3C"/><path d="M2.172 11.224h1.449v1.448H2.172v-1.448z" fill="#D64333"/><path d="M6.88 3.62h7.24v1.45H6.88V3.62z" fill="#4398D1"/><path d="M12.31 3.62h1.81v1.45h-1.81V3.62zM9.776 5.069h1.448v1.448H9.776V5.07z" fill="#3E8CC7"/><path d="M15.207 8.69l-1.448-2.173H7.24L5.793 8.69H3.621v6.517h2.172l1.448 2.172h10.5V8.69h-2.534z" fill="#4398D1"/><path d="M15.207 8.69l-.64-.959a24.073 24.073 0 01-8.11 8.473l.784 1.175h10.5V8.69h-2.534z" fill="#3E8CC7"/><path d="M21 15.931l-.724.724H19.19V9.414h1.086l.724.724v5.793z" fill="#4398D1"/><path d="M17.741 11.586h1.449v2.173h-1.45v-2.173z" fill="#3E8CC7"/><path d="M13.397 11.586h-2.173l.724-3.258-4.344 3.982h2.172l-.724 3.259 4.345-3.983z" fill="#FDB62F"/><path d="M15.93 8.69h.725v8.69h-.724V8.69z" fill="#2A7DB8"/><path d="M4.707 11.224h.724v2.897h-.724v-2.897zm0-1.448h.724v.724h-.724v-.724z" fill="#60AADB"/></g></symbol><symbol id="icon-menu10" viewBox="0 0 21 21"><g clip-path="url(#clip0)"><path d="M19.582 16.385H1.418A1.418 1.418 0 010 14.967v-.279c0-.783.635-1.418 1.418-1.418h18.164c.783 0 1.418.635 1.418 1.418v.28c0 .782-.635 1.417-1.418 1.417z" fill="#E94444"/><path d="M21 14.688v.28c0 .783-.635 1.417-1.418 1.417h-.83c.784 0 1.418-.635 1.418-1.418v-.279c0-.783-.634-1.418-1.417-1.418h.83c.782 0 1.417.635 1.417 1.418z" fill="#D83131"/><path d="M19.582 16.385H1.418S.79 19.41 4.356 20.6c.61.204 1.248.299 1.888.299h8.513c.639 0 1.277-.095 1.887-.299 3.565-1.19 2.938-4.215 2.938-4.215z" fill="#FDB62F"/><path d="M16.644 20.6a5.95 5.95 0 01-1.888.3h-.962a5.95 5.95 0 001.888-.3c3.564-1.19 2.938-4.214 2.938-4.214h.962s.627 3.024-2.938 4.214z" fill="#F2A40F"/><path d="M19.615 13.835a.836.836 0 01-1.369.643 1.336 1.336 0 00-.91-.332c-1.14 0-1.14.903-2.28.903s-1.14-.902-2.28-.902-1.14.902-2.28.902-1.14-.902-2.28-.902-1.14.902-2.28.902-1.14-.902-2.28-.902c-.421 0-.687.146-.911.33-.547.45-1.37.066-1.37-.642V12.16h18.24v1.675z" fill="#BBEC6C"/><path d="M19.616 12.16v1.675a.835.835 0 01-1.26.719.82.82 0 00.41-.719V12.16h.85z" fill="#A2E62E"/><path d="M1.385 10.818v1.355H3.34c.407 0 .737.33.737.736v3.902a.942.942 0 001.883 0v-3.902c0-.407.33-.736.737-.736h12.919v-1.355H1.385z" fill="#FEE45A"/><path d="M18.765 10.818h.85v1.355h-.85v-1.355z" fill="#FEDF30"/><path d="M19.582 10.91H1.418A1.418 1.418 0 010 9.494v-.28c0-.782.635-1.417 1.418-1.417h18.164c.783 0 1.418.635 1.418 1.418v.279c0 .783-.635 1.418-1.418 1.418z" fill="#9E5528"/><path d="M21 9.214v.279c0 .783-.635 1.417-1.418 1.417h-.83c.784 0 1.418-.634 1.418-1.417v-.28c0-.782-.634-1.417-1.417-1.417h.83c.782 0 1.417.635 1.417 1.418z" fill="#904D24"/><path d="M10.5.102C3.419.204 1.04 4.045.254 6.277A1.179 1.179 0 001.37 7.842h18.26a1.18 1.18 0 001.11-1.578C19.95 4.03 17.568.204 10.5.102z" fill="#FDB62F"/><path d="M19.63 7.842h-.1a1.18 1.18 0 00.234-1.187C18.974 4.42 16.59.595 9.523.493c-1.828.026-3.343.302-4.598.735C6.348.574 8.17.135 10.5.102c7.067.102 9.45 3.928 10.241 6.162a1.182 1.182 0 01-1.111 1.578z" fill="#F2A40F"/><path d="M7.577 3.349a.306.306 0 01-.27-.453l.276-.508a.307.307 0 01.54.292l-.276.508a.307.307 0 01-.27.161zm2.919.035a.307.307 0 01-.306-.307V2.5a.307.307 0 11.613 0v.578c0 .17-.138.307-.307.307zm2.927-.04a.307.307 0 01-.266-.152l-.29-.5a.307.307 0 11.53-.308l.29.5a.307.307 0 01-.264.46z" fill="#E57917"/></g></symbol><symbol id="icon-menu11" viewBox="0 0 21 21"><path d="M12.457 12.992h7.831v2.491h-7.83v-2.491z" fill="#2A7DB8"/><path d="M5.999 7.296a1.07 1.07 0 00-.955.59l-1.485 2.97-2.414.483A1.424 1.424 0 000 12.735v2.748h9.61V7.296H6z" fill="#4398D1"/><path d="M16.373 17.619a2.136 2.136 0 100-4.271 2.136 2.136 0 000 4.27z" fill="#5E5E5F"/><path d="M16.373 16.195a.712.712 0 100-1.424.712.712 0 000 1.424z" fill="#EBEBEB"/><path d="M6.407 8.72l-1.068 2.136h2.848V8.72h-1.78z" fill="#87CED9"/><path d="M9.254 5.873h2.136a.712.712 0 110 1.424H9.254a.712.712 0 110-1.424zM19.949 10.5h-.745a1.052 1.052 0 01-.583-1.926l.6-.4V4.271a.178.178 0 00-.357 0v.534h-.711v-.534a.89.89 0 111.78 0v4.093c0 .12-.06.23-.16.297l-.757.505a.34.34 0 00.188.622h.745a.34.34 0 00.34-.34v-.372H21v.373c0 .58-.471 1.05-1.051 1.051z" fill="#DE4C3C"/><path d="M19.932 4.271a.89.89 0 10-1.78 0v.534h.712v-.534a.178.178 0 11.356 0v1.602l.712-1.068v-.534z" fill="#BF362C"/><path d="M9.61 11.568v3.915h3.204l1.067-2.136h4.983l1.068 2.136h.712v-3.915H9.61z" fill="#4398D1"/><path d="M0 12.635h2.136v1.424H0v-1.424z" fill="#EBEBEB"/><path d="M7.119 11.924h1.423v.712H7.12v-.712z" fill="#2A7DB8"/><path d="M4.271 17.619a2.136 2.136 0 100-4.271 2.136 2.136 0 000 4.27z" fill="#5E5E5F"/><path d="M18.85 3.381a.727.727 0 00-.56.264l-5.659 6.85.538 1.073h1.424l4.852-6.931a.726.726 0 00.131-.417v-.113c0-.4-.325-.726-.726-.726z" fill="#FDB62F"/><path d="M12.633 10.494l-1.6-3.198H9.61l1.424 4.272h2.135l-.536-1.074z" fill="#FDB62F"/><path d="M4.271 16.195a.712.712 0 100-1.424.712.712 0 000 1.424z" fill="#EBEBEB"/><path d="M9.61 11.568h.712v3.915H9.61v-3.915z" fill="#3E8CC7"/><path d="M12.633 10.494l.537 1.074h1.15l-.923-2-.764.926z" fill="#FFA83D"/><path d="M8.186 8.898L6.23 10.856h1.957V8.898z" fill="#71C4D1"/><path d="M11.568 6.585h-2.67a.89.89 0 01-.348-.071.668.668 0 00-.008.07c0 .394.32.713.712.713h2.136a.712.712 0 00.69-.877.881.881 0 01-.512.165z" fill="#BF362C"/></symbol><symbol id="icon-menu12" viewBox="0 0 21 21"><g clip-path="url(#clip0)"><path d="M3.259 2.172H14.12c.8 0 1.448.649 1.448 1.449v15.93c0 .8-.649 1.449-1.448 1.449H3.259c-.8 0-1.449-.648-1.449-1.448V3.62c0-.8.649-1.449 1.449-1.449z" fill="#4398D1"/><path d="M5.431 21h8.69c.8 0 1.448-.648 1.448-1.448v-8.69L5.431 21z" fill="#3E8CC7"/><path d="M11.224 16.655h2.897v2.897h-2.897v-2.897z" fill="#D64333"/><path d="M14.12 3.62H3.26v15.932h7.965l2.897-2.897V3.621z" fill="#87CED9"/><path d="M18.103 6.88L15.57 9.413l-1.448 1.448-2.535 2.535-.362 1.448 1.448-.362 1.449-1.448 1.448-1.449 3.62-3.62-1.086-1.087z" fill="#FDB62F"/><path d="M4.707 11.948h6.155v.724H4.707v-.724zm0 1.448h5.069v.725h-5.07v-.725zm0 1.449h5.069v.724h-5.07v-.724zm0 1.448h5.069v.724h-5.07v-.724zm8.327-8.227l-1.252-.417-1.132-1.132H7.09L5.97 7.64l-1.624.406V10.5h1.153a1.08 1.08 0 002.039 0h2.305a1.08 1.08 0 002.04 0h1.152V8.066zM6.517 10.5a.362.362 0 110-.724.362.362 0 010 .724zm4.345 0a.362.362 0 110-.724.362.362 0 010 .724zm1.448-.724h-.424c-.004-.013-.01-.023-.015-.037-.008-.02-.018-.039-.027-.059a1.118 1.118 0 00-.063-.116l-.034-.053a1.088 1.088 0 00-.1-.12l-.021-.026a1.111 1.111 0 00-.145-.12l-.046-.028a1.12 1.12 0 00-.183-.091 1.014 1.014 0 00-.13-.04c-.02-.006-.04-.012-.06-.015a.992.992 0 00-.398 0c-.02.003-.04.01-.06.014a1.012 1.012 0 00-.313.132c-.014.01-.03.018-.045.028-.052.036-.1.076-.145.12l-.022.025a1.11 1.11 0 00-.1.121l-.033.053a1.1 1.1 0 00-.09.175c-.005.012-.011.023-.015.037h-2.3c-.004-.013-.01-.023-.015-.037-.008-.02-.018-.039-.027-.059a1.096 1.096 0 00-.063-.116 1.1 1.1 0 00-.134-.174l-.021-.025a1.109 1.109 0 00-.145-.12l-.045-.028a1.115 1.115 0 00-.184-.091 1.013 1.013 0 00-.13-.04c-.02-.006-.039-.012-.06-.015a.992.992 0 00-.398 0c-.02.003-.039.01-.059.014a1.012 1.012 0 00-.313.132l-.046.028c-.051.036-.1.076-.145.12l-.021.025a1.1 1.1 0 00-.1.121l-.034.053a1.098 1.098 0 00-.09.175l-.015.037h-.427V8.61l1.271-.318 1.05-1.05h2.959l1.04 1.04.92.308.001 1.186z" fill="#59B3C2"/><path d="M4.707 5.069h7.965l-.543-1.448-.543-1.449h-1.81V1.086a1.086 1.086 0 10-2.172 0v1.086h-1.81L5.25 3.621l-.543 1.448z" fill="#DE4C3C"/><path d="M16.761 8.222l.512-.513 1.087 1.087-.512.512-1.087-1.086z" fill="#FA962A"/><path d="M11.224 19.552l2.897-2.897h-2.897v2.897z" fill="#59B3C2"/><path d="M12.13 3.62l-.544-1.448h-.724L7.966 5.07h4.706l-.542-1.45z" fill="#D64333"/></g></symbol><symbol id="icon-menu13" viewBox="0 0 19 19"><g clip-path="url(#clip0)"><path d="M.655 5.896h17.69v11.138H.655V5.896z" fill="#87CED9"/><path d="M0 3.93h19v1.966H0V3.931z" fill="#4398D1"/><path d="M16.38 3.93H19v1.966h-2.62V3.931z" fill="#3E8CC7"/><path d="M6.06 17.034h12.285V5.896h-1.146L6.06 17.034z" fill="#71C4D1"/><path d="M1.638 1.965h1.965v1.966H1.638V1.965z" fill="#DEDEDE"/><path d="M0 17.035h19V19H0v-1.965z" fill="#4398D1"/><path d="M15.397 1.965h1.965v1.966h-1.965V1.965z" fill="#DEDEDE"/><path d="M12.12 0H6.225a.655.655 0 00-.655.655v3.276h1.31v-2.62h5.242v2.62h1.31V.655A.655.655 0 0012.776 0h-.655z" fill="#4398D1"/><path d="M2.62 7.862h14.087v7.207H2.62V7.862z" fill="#DEDEDE"/><path d="M10.155 11.138l.82-3.276.163-.655-.655.655-3.931 3.931 2.293.027-.818 3.25-.165.654.655-.655 3.931-3.93h-2.293z" fill="#FDB62F"/><path d="M5.569 9.5h-.655v-.655h-.655V9.5h-.655v.655h.655v.655h.655v-.655h.655V9.5z" fill="#DE4C3C"/><path d="M13.431 9.5h1.966v.655H13.43V9.5z" fill="#2A7DB8"/><path d="M5.569 2.948h1.31v.983H5.57v-.983zm6.551 0h1.311v.983h-1.31v-.983zm4.26 14.087H19V19h-2.62v-1.965z" fill="#3E8CC7"/><path d="M.655 5.896h17.69v.983H.655v-.983z" fill="#71C4D1"/></g></symbol><symbol id="icon-menu2" viewBox="0 0 21 21"><g clip-path="url(#clip0)"><path d="M19.552.724H8.69a1.446 1.446 0 00-1.45 1.444v3.625c0 .8.649 1.448 1.449 1.448h10.862A1.446 1.446 0 0021 5.797V2.173c0-.8-.648-1.449-1.448-1.449z" fill="#696969"/><path d="M19.552.724h-3.62c.799 0 1.447.649 1.447 1.448v3.621a1.448 1.448 0 01-1.448 1.448h3.62a1.446 1.446 0 001.45-1.444V2.173c0-.8-.65-1.449-1.45-1.449z" fill="#5E5E5F"/><path d="M7.241 3.62h13.76v.725H7.24V3.62zm0 1.449h13.76v.724H7.24v-.724zm0-2.897h13.76v.724H7.24v-.724z" fill="#535354"/><path d="M19.552 13.758H8.69a1.446 1.446 0 00-1.449 1.445v3.624c0 .8.649 1.449 1.449 1.449h10.862A1.446 1.446 0 0021 18.832v-3.625c0-.8-.648-1.449-1.448-1.449z" fill="#696969"/><path d="M19.552 13.758h-3.62c.799 0 1.447.649 1.447 1.449v3.62a1.448 1.448 0 01-1.448 1.448h3.62a1.446 1.446 0 001.45-1.443v-3.625c0-.8-.65-1.449-1.45-1.449z" fill="#5E5E5F"/><path d="M7.241 16.655h13.76v.724H7.24v-.724zm0 1.449h13.76v.724H7.24v-.724zm0-2.897h13.76v.724H7.24v-.724z" fill="#535354"/><path d="M18.104 7.241H7.24a1.446 1.446 0 00-1.448 1.444v3.625c0 .8.649 1.449 1.448 1.449h10.863a1.446 1.446 0 001.448-1.444V8.69c0-.8-.649-1.449-1.448-1.449z" fill="#5E5E5F"/><path d="M18.103 7.241h-3.62c.8 0 1.448.649 1.448 1.449v3.62a1.448 1.448 0 01-1.448 1.448h3.62a1.446 1.446 0 001.449-1.443V8.69c0-.8-.649-1.449-1.449-1.449z" fill="#585859"/><path d="M5.793 10.138h13.759v.724H5.793v-.724zm0 1.448h13.759v.724H5.793v-.724zm0-2.896h13.759v.724H5.793V8.69z" fill="#535354"/><path d="M7.241 18.466a5.431 5.431 0 100-10.863 5.431 5.431 0 000 10.863z" fill="#4398D1"/><path d="M7.241 5.793a7.241 7.241 0 100 14.483 7.241 7.241 0 000-14.483zm0 12.673a5.431 5.431 0 110-10.862 5.431 5.431 0 010 10.862z" fill="#737373"/><path d="M9.414 13.035l2.976-1.719a5.784 5.784 0 00-.2-.51l-.006-.013c-.046-.1-.1-.196-.151-.293-.032-.06-.06-.123-.093-.181l-.006-.008a5.454 5.454 0 00-.632-.874l-2.975 1.715v-3.44h-.013a5.364 5.364 0 00-2.13-.002c-.01.01-.018.022-.027.033v3.409L3.184 9.435l-.01.01a5.5 5.5 0 00-.624.864l-.005.008c-.09.154-.171.313-.245.474l-.006.013a5.555 5.555 0 00-.2.51l2.975 1.72-2.977 1.719c.058.174.125.344.2.51l.007.013c.074.162.155.32.244.474l.005.008a5.472 5.472 0 00.633.874l2.974-1.715v3.44l.013.002a5.383 5.383 0 002.146 0l.013-.002v-3.44l2.975 1.717a5.352 5.352 0 00.632-.874l.005-.008c.034-.059.062-.121.094-.181.051-.097.105-.192.15-.293l.007-.013c.075-.166.141-.336.2-.51l-2.976-1.72zm-2.897 0a.724.724 0 111.448 0 .724.724 0 01-1.448 0z" fill="#87CED9"/><path d="M12.39 11.317a5.798 5.798 0 00-.2-.511l-.006-.013c-.045-.1-.1-.196-.15-.293-.033-.06-.06-.123-.094-.18l-.005-.01c-.01-.016-.022-.031-.032-.048l-3.435 2.012a1.443 1.443 0 11-2.49 1.458l-3.44 2.013.005.007.005.009a5.47 5.47 0 00.632.874l2.975-1.718v3.44l.013.002a5.383 5.383 0 002.147 0l.013-.002v-3.44l2.974 1.717a5.349 5.349 0 00.632-.874l.005-.008c.034-.059.062-.121.094-.181.052-.097.105-.192.15-.293l.007-.013c.075-.165.142-.336.2-.51l-2.976-1.72 2.976-1.718z" fill="#71C4D1"/></g></symbol><symbol id="icon-menu3" viewBox="0 0 23 23"><path d="M21.017 7.918l-1.586-1.586h-3.966L13.88 7.918l-1.982.396v2.38H23v-2.38l-1.983-.396z" fill="#DE4C3C"/><path d="M20.383 7.283l-6.063 3.41H23V8.315l-1.983-.396-.634-.635z" fill="#D64333"/><path d="M6.388 6.332a.793.793 0 00-.674.372l-1.748 2.8-2.69.538C.533 10.19 0 10.842 0 11.597v3.062h10.31V6.332H6.388z" fill="#4398D1"/><path d="M0 12.28h10.31v2.38H0v-2.38z" fill="#3E8CC7"/><path d="M6.741 7.917l-.793 1.587h2.776V7.917H6.741z" fill="#87CED9"/><path d="M0 11.487h2.38v1.586H0v-1.586z" fill="#DEDEDE"/><path d="M7.534 10.694h1.19v.793h-1.19v-.793z" fill="#2A7DB8"/><path d="M14.276 11.883a1.19 1.19 0 100-2.38 1.19 1.19 0 000 2.38zm6.344 0a1.19 1.19 0 100-2.38 1.19 1.19 0 000 2.38zM4.362 16.642a1.983 1.983 0 100-3.966 1.983 1.983 0 000 3.966z" fill="#696969"/><path d="M3.966 14.262h.793v.794h-.793v-.793z" fill="#DEDEDE"/><path d="M10.31 12.676v1.983h11.5l1.19-.793v-1.19H10.31z" fill="#4398D1"/><path d="M17.845 16.642a1.983 1.983 0 100-3.966 1.983 1.983 0 000 3.966z" fill="#696969"/><path d="M17.448 14.262h.793v.794h-.793v-.793z" fill="#DEDEDE"/><path d="M10.31 12.676h.793v1.983h-.793v-1.983z" fill="#2A7DB8"/><path d="M5.92 13.446a2.751 2.751 0 01-3.163 2.368 1.976 1.976 0 103.163-2.368zm13.483.024a2.751 2.751 0 01-3.164 2.367 1.976 1.976 0 103.164-2.368z" fill="#565657"/><path d="M6.94 9.504h1.784V7.917h-.198L6.94 9.504z" fill="#71C4D1"/><path d="M0 12.28h2.38v.793H0v-.793z" fill="#C7C7C7"/></symbol><symbol id="icon-menu4" viewBox="0 0 21 21"><g clip-path="url(#clip0)"><path d="M11.561 1.478V.063H9.438v1.415L5.9 3.955h9.2l-3.54-2.477z" fill="#4398D1"/><path d="M18.638 18.814H2.363a.708.708 0 01-.708-.707v-3.641c0-.58.352-1.1.89-1.314l.879-.352h14.152l.88.351c.537.216.89.736.89 1.315v3.64a.707.707 0 01-.708.708z" fill="#DE4C3C"/><path d="M18.456 13.152l-.88-.352h-1.415l.88.351c.537.216.89.736.89 1.315v3.64a.708.708 0 01-.709.708h1.416c.39 0 .707-.316.707-.707v-3.641c0-.58-.352-1.1-.89-1.314z" fill="#D64333"/><path d="M17.576 12.8H3.424L5.83 9.49a1.415 1.415 0 011.145-.582h7.05c.453 0 .879.216 1.145.583l2.406 3.309z" fill="#87CED9"/><path d="M3.778 14.215h.707c.391 0 .708.317.708.708v.354c0 .39-.317.707-.708.707h-.707a.708.708 0 01-.708-.707v-.354c0-.391.317-.708.708-.708zm12.737 0h.707c.39 0 .708.317.708.708v.354c0 .39-.317.707-.708.707h-.707a.708.708 0 01-.708-.707v-.354c0-.391.317-.708.708-.708z" fill="#EBEBEB"/><path d="M7.316 14.215h6.368c.391 0 .708.317.708.708v.354c0 .39-.317.707-.708.707H7.316a.708.708 0 01-.708-.707v-.354c0-.391.317-.708.708-.708z" fill="#BF362C"/><path d="M1.655 17.4h17.69v.707c0 .39-.316.707-.707.707H2.363a.708.708 0 01-.708-.707v-.708z" fill="#D64333"/><path d="M1.655 18.107v2.477c0 .195.158.353.354.353h2.123a.354.354 0 00.353-.353v-1.77H2.363a.708.708 0 01-.708-.707zm16.983.707h-2.123v1.77c0 .195.158.353.354.353h2.122a.354.354 0 00.354-.353v-2.477c0 .39-.316.707-.707.707z" fill="#696969"/><path d="M1.655 18.107v1.061c0 .196.158.354.354.354h2.123a.354.354 0 00.353-.354v-.354H2.363a.708.708 0 01-.708-.707zm16.983.707h-2.123v.354c0 .196.158.354.354.354h2.122a.354.354 0 00.354-.354v-1.061c0 .39-.316.707-.707.707z" fill="#5E5E5F"/><path d="M15.17 9.49a1.415 1.415 0 00-1.145-.582h-.694L9.439 12.8h8.137L15.17 9.49z" fill="#71C4D1"/><path d="M10.146 5.016h.708v1.061h-.708V5.016zm0 1.769h.708v1.061h-.708V6.785zm-4.13-1.172l.673-.821.547.448-.672.821-.548-.448zM4.895 6.982l.673-.821.547.448-.673.821-.547-.448zM3.774 8.35l.673-.82.547.448-.672.82-.548-.448zm-1.12 1.368l.673-.82.547.448-.673.821-.547-.449zm5.44-3.781l.297-1.019.68.198-.298 1.02-.68-.2zm-.496 1.696l.298-1.019.679.199-.298 1.018-.68-.198zM3.9 5.403l.78-.72.48.52-.78.72-.48-.52zM2.6 6.604l.78-.72.48.52-.78.72-.48-.52zM1.3 7.802l.78-.72.48.52-.78.72-.48-.52zM0 9.001l.78-.72.48.52-.78.72-.48-.52zm13.765-3.688l.547-.448.673.821-.548.448-.672-.821zm1.121 1.368l.548-.448.673.82-.548.45-.673-.822zm1.12 1.369l.547-.448.673.82-.547.45-.673-.822zm1.121 1.368l.547-.448.673.821-.547.448-.673-.82zm-5.198-4.226l.679-.198.297 1.019-.68.198-.296-1.019zm.496 1.695l.68-.199.297 1.019-.68.198-.297-1.018zm3.415-1.611l.48-.52.78.72-.48.52-.78-.72zm1.3 1.2l.48-.52.78.72-.48.52-.78-.72zm1.3 1.199l.48-.52.78.72-.48.52-.78-.72zm1.3 1.2l.48-.52.78.72-.48.52-.78-.72z" fill="#87CED9"/><path d="M12.394 2.06L10.5 3.956h4.6L12.394 2.06z" fill="#3E8CC7"/></g></symbol><symbol id="icon-menu5" viewBox="0 0 21 21"><path d="M17.17 12.672c0-1.2-.972-2.173-2.172-2.173H6.31c-1.2 0-2.172.973-2.172 2.173v2.534l1.448.724H17.17v-3.258z" fill="#4398D1"/><path d="M14.998 10.5H13.55c1.2 0 2.173.972 2.173 2.172v3.258h1.448v-3.258c0-1.2-.973-2.173-2.172-2.173z" fill="#3E8CC7"/><path d="M9.206 7.965V10.5l1.448 2.172 1.448-2.172V7.965H9.206z" fill="#FEC9A3"/><path d="M9.206 10.5l1.448 2.172 1.448-2.173H9.206z" fill="#EBEBEB"/><path d="M5.947 13.396h.724v2.534h-.724v-2.534zm8.69 0h.724v2.534h-.724v-2.534zM12.826 10.5h-.724l-1.448 2.172-1.448-2.173h-.724v1.449l1.81.603v3.38h.724v-3.38l1.81-.603v-1.449z" fill="#2A7DB8"/><path d="M11.74 14.12h2.173v.724H11.74v-.724z" fill="#2A7DB8"/><path d="M9.206 7.965v1.468a3.23 3.23 0 002.896 0V7.965H9.206z" fill="#F0B081"/><path d="M7.396 3.62v2.173a3.259 3.259 0 006.516 0V3.62H7.396z" fill="#FEC9A3"/><path d="M12.464 3.62v2.173A3.259 3.259 0 019.93 8.968a3.25 3.25 0 003.982-3.175V3.62h-1.448z" fill="#F7BB8F"/><path d="M13.912 3.258V1.81c0-1-.81-1.81-1.81-1.81H9.206c-1 0-1.81.81-1.81 1.81v2.173h8.689v-.725h-2.173z" fill="#4398D1"/><path d="M10.292 4.707h.724v1.81h-.724v-1.81z" fill="#F0B081"/><path d="M7.395 5.793h-1.81V3.62h1.81v2.172zm-.2 3.197l-1.087-.723a.362.362 0 01-.16-.302V5.793h.723v1.979l.925.615-.401.604zm10.338 6.94h3.316a3.617 3.617 0 00-6.632 0H7.09a3.62 3.62 0 100 2.897h7.126a3.617 3.617 0 006.632 0h-3.316v-2.896zM5.585 18.466l-1.81 1.086-1.84-.965.03-2.293 1.81-1.087 1.81 1.087v2.172z" fill="#87CED9"/><path d="M12.464 1.81v1.448h1.448V1.81c0-1-.81-1.81-1.81-1.81h-1.448c1 0 1.81.81 1.81 1.81zm2.172 1.448h1.448v.724h-1.448v-.724z" fill="#3E8CC7"/><path d="M17.533 15.93h3.316a3.617 3.617 0 00-6.632 0h-1.753l-2.896 2.897h4.649a3.617 3.617 0 006.632 0h-3.316V15.93z" fill="#71C4D1"/><path d="M7.033 17.017h7.241v.724h-7.24v-.724z" fill="#59B3C2"/><path d="M5.947 5.793h.724v.724h-.724v-.724z" fill="#71C4D1"/></symbol><symbol id="icon-menu6" viewBox="0 0 21 21"><g clip-path="url(#clip0)"><path d="M0 19.464c0-.408.162-.798.45-1.086l6.43-6.43 2.172 2.173-6.43 6.429A1.537 1.537 0 010 19.464z" fill="#DEDEDE"/><path d="M8.146 13.215l-6.08 6.08a.362.362 0 000 .512l.65.65 6.336-6.337-.906-.905z" fill="#C7C7C7"/><path d="M9.008 14.077l-2.085-2.085a2.622 2.622 0 010-3.708L14.44.768a2.622 2.622 0 013.708 0l2.085 2.085a2.622 2.622 0 010 3.708l-7.516 7.516a2.622 2.622 0 01-3.708 0z" fill="#4398D1"/><path d="M10.862 13.397c-.312 0-.61-.123-.83-.344l-2.085-2.085a1.174 1.174 0 010-1.66l7.516-7.516a1.174 1.174 0 011.66 0l2.085 2.085a1.174 1.174 0 010 1.66l-7.516 7.516a1.17 1.17 0 01-.83.344z" fill="#3E8CC7"/><path d="M13.502 4.964l.512-.512 2.535 2.534-.512.512-2.535-2.534zM10.606 7.86l.512-.513 2.534 2.535-.512.512-2.534-2.535z" fill="#2A7DB8"/><path d="M17.454 3.546a1.132 1.132 0 00-1.598 0l-.543.543a.362.362 0 000 .512l1.086 1.086c.142.141.37.141.512 0l.543-.543a1.13 1.13 0 00.001-1.597v-.001zm-.512 1.086l-.287.287-.574-.574.287-.287a.406.406 0 11.574.574zm-3.163 1.525l-.04.724a.406.406 0 01.263.693l-.287.287-.574-.574.287-.288-.512-.512-.543.544a.362.362 0 000 .512l1.086 1.086c.141.141.37.141.512 0l.543-.543a1.13 1.13 0 00-.735-1.927v-.002zM10.756 9.52a.362.362 0 00-.256-.106v-.725h-.724v.725h-.362a.362.362 0 00-.256.106l-.362.362a.362.362 0 000 .512l1.81 1.81c.141.141.37.141.512 0l.362-.362a.362.362 0 00.106-.256V10.5a.362.362 0 00-.106-.256l-.724-.724zm.106 1.916l-1.298-1.298h.786l.512.512v.786z" fill="#DEDEDE"/></g></symbol><symbol id="icon-menu7" viewBox="0 0 21 21"><g clip-path="url(#clip0)"><path d="M1.882 19.02l.712-.71.503.503-.712.711-.503-.503z" fill="#FA962A"/><path d="M.92 17.137l5.843-5.843 3.35 3.351-5.842 5.842-3.35-3.35z" fill="#FDB62F"/><path d="M18.152 5.035l-1.78-1.78.713-.711 1.067-.356.356-1.068 1.218-.712L21 1.69l-.712 1.21-1.068.357-.356 1.067-.712.712z" fill="#DEDEDE"/><path d="M6.05 8.95l1.78-1.78 6.407 6.407-1.78 1.78L6.052 8.95z" fill="#3E8CC7"/><path d="M7.83 10.73l1.78-1.78 2.848 2.848-1.78 1.78L7.83 10.73z" fill="#4398D1"/><path d="M12.813 12.154l-3.559-3.56 5.34-5.338h1.779l1.78 1.78v1.78l-5.34 5.338z" fill="#87CED9"/><path d="M5.695 10.73l1.068-1.067 4.983 4.983-1.068 1.068-4.983-4.984z" fill="#F46B27"/><path d="M8.305 13.34l1.068-1.067 2.373 2.372-1.068 1.068-2.373-2.373z" fill="#DE4C3C"/><path d="M1.528 20.592L.356 19.42a1.215 1.215 0 010-1.719l2.596-2.596.503.504-2.596 2.596a.504.504 0 000 .711l1.172 1.172-.503.504z" fill="#FDB62F"/><path d="M13.451 4.397l.504-.503.89.89-.504.503-.89-.89zm-1.068 1.068l.504-.504.89.89-.503.504-.89-.89zm3.738 1.6l.504-.503.89.89-.504.503-.89-.89zm-1.068 1.07l.504-.504.89.89-.504.504-.89-.89zm-3.737-1.602l.503-.504.89.89-.503.504-.89-.89zm2.67 2.669l.503-.503.89.89-.503.503-.89-.89zM10.248 7.6l.503-.504.89.89-.503.503-.89-.89zm2.67 2.67l.503-.503.89.89-.503.503-.89-.89z" fill="#59B3C2"/><path d="M3.056 15l.503-.503 3.344 3.344-.503.504L3.056 15zm1.068-1.067l.503-.504 3.344 3.344-.503.504-3.344-3.344zm-2.136 2.135l.503-.503 3.345 3.344-.504.503-3.344-3.344zm3.203-3.203l.504-.503 3.344 3.344-.503.503-3.345-3.344z" fill="#FA962A"/><path d="M5.325 17.27l.503-.503 1.075 1.075-.503.503-1.075-1.075zm1.068-1.068l.503-.504 1.075 1.075-.503.504-1.075-1.075zm-2.136 2.136l.503-.504 1.075 1.076-.503.503-1.075-1.075zm3.203-3.205l.503-.504 1.076 1.076-.504.503-1.075-1.075z" fill="#FA7D16"/></g></symbol><symbol id="icon-menu8" viewBox="0 0 19 19"><g clip-path="url(#clip0)"><path d="M15.57 1.696L11.473.33a2.62 2.62 0 00-1.937.112L5.57 2.293H1.638v14.742c0 1.085.88 1.965 1.965 1.965h11.794c1.085 0 1.965-.88 1.965-1.965V4.182a2.62 2.62 0 00-1.792-2.486zm-5.51.692l.062-.062c.22-.22.547-.29.838-.182l3.775 1.416a.792.792 0 01-.542 1.488l-3.836-1.354a.792.792 0 01-.296-1.306zm5.664 12.19a.819.819 0 11-1.638 0V9.173a.819.819 0 011.638 0v5.405z" fill="#4398D1"/><path d="M1.638 0h3.931v2.293H1.638V0z" fill="#DE4C3C"/><path d="M2.62 0h.656v.983h-.655V0zm1.311 0h.655v.983h-.655V0z" fill="#D64333"/><path d="M15.57 1.696l-1.058-.353a34.388 34.388 0 01-.569 1.92l.79.295a.792.792 0 01-.541 1.488l-.786-.277c-3.054 7.946-8.19 11.493-11.604 13.052A1.966 1.966 0 003.603 19h11.794c1.085 0 1.965-.88 1.965-1.966V4.182a2.62 2.62 0 00-1.792-2.486zm.154 12.882a.819.819 0 11-1.638 0V9.173a.819.819 0 011.638 0v5.405z" fill="#3E8CC7"/><path d="M3.604 6.552v9.173c0 .723.586 1.31 1.31 1.31h6.224a1.31 1.31 0 001.31-1.31V7.469a1.31 1.31 0 00-.862-1.231l-2.741-.996H4.914a1.31 1.31 0 00-1.31 1.31z" fill="#87CED9"/><path d="M7.805 7.862l-1.738 3.864a1.906 1.906 0 103.477 0L7.805 7.862z" fill="#FA962A"/></g></symbol><symbol id="icon-menu9" viewBox="0 0 21 21"><g clip-path="url(#clip0)"><path d="M20.707 11.405a3.076 3.076 0 00-.643-1.716c-.859-1.118-1.026-2.005-1.026-2.005-.674-1.766-1.273-2.943-1.714-3.69a2.96 2.96 0 00-2.168-1.428c-1.817-.235-7.496-.235-9.314 0a2.963 2.963 0 00-2.167 1.429c-.44.746-1.04 1.923-1.714 3.689 0 0-.167.887-1.026 2.005a3.075 3.075 0 00-.642 1.716c-.065 1.353.327 1.65.677 4.71a.476.476 0 00.474.423h18.112a.477.477 0 00.474-.422c.099-.859.39-2.6.39-2.6.257-.865.312-1.57.287-2.111z" fill="#E95353"/><path d="M18.657 7.613c-.532-1.33-1.074-2.492-1.613-3.418a2.669 2.669 0 00-1.928-1.296c-1.822-.242-7.423-.24-9.23 0a2.67 2.67 0 00-1.929 1.296c-.547.938-1.096 2.115-1.62 3.418 5.432.427 10.888.427 16.32 0z" fill="#3E8CC7"/><path d="M17.886 9.151c-.208.065-.4.156-.562.247a6.91 6.91 0 01-.91.436c-.523.199-.612.495-.612.495-.016.02-.03.04-.045.061-.397.589.124 1.372.827 1.273a10.085 10.085 0 002.279-.61.817.817 0 00.512-.628c.156-.843-.67-1.53-1.49-1.274z" fill="#fff"/><path d="M18.972 13.868H17.84a.191.191 0 00-.135.326l1.13 1.131c.12.12.327.035.327-.135v-1.13a.19.19 0 00-.191-.192z" fill="#FFE21F"/><path d="M20.03 16.114a.477.477 0 01-.474.424H17.38V17.8c0 .447.363.81.81.81h1.367a.81.81 0 00.81-.81v-3.952c-.09.547-.265 1.641-.337 2.266z" fill="#454545"/><path d="M20.984 6.73a.652.652 0 00-.643-.494h-.546a.633.633 0 00-.633.633v.39h-.29l.167.394h.636c.33 0 .656-.071.955-.208a.633.633 0 00.354-.716z" fill="#ED6262"/><path d="M18.244 10.967a.796.796 0 100-1.592.796.796 0 000 1.592z" fill="#FFBD49"/><path d="M16.643 11.384a.585.585 0 100-1.17.585.585 0 000 1.17z" fill="#FFDB6F"/><path d="M15.127 10.8l-.914 1.592H6.787L5.873 10.8h9.254z" fill="#6F6F6F"/><path d="M5.243 10.39a.774.774 0 00-.046-.061s-.088-.296-.61-.494a6.943 6.943 0 01-.912-.437 3.017 3.017 0 00-.561-.247c-.818-.256-1.646.432-1.49 1.274l.015.072a.817.817 0 00.496.557c.425.17 1.263.465 2.28.609.704.1 1.224-.684.828-1.273z" fill="#fff"/><path d="M3.159 13.868h-1.13a.19.19 0 00-.192.191v1.13c0 .17.206.256.326.136l1.131-1.13a.191.191 0 00-.135-.327z" fill="#FFE21F"/><path d="M18.029 15.841c-1.177-2.037-2.531-1.973-2.531-1.973H5.502s-1.353-.064-2.531 1.973H.936l.025.263a.477.477 0 00.476.434h18.127a.477.477 0 00.476-.434l.025-.263h-2.036z" fill="#777"/><path d="M1.444 16.538a.478.478 0 01-.474-.423 60.15 60.15 0 00-.336-2.267v3.953c0 .447.362.81.81.81H2.81a.81.81 0 00.81-.81v-1.263H1.444z" fill="#454545"/><path d="M1.837 7.258V6.87a.633.633 0 00-.632-.633H.659c-.302 0-.578.2-.644.493a.633.633 0 00.355.715c.3.137.625.208.955.208h.636l.166-.394h-.29z" fill="#ED6262"/><path d="M2.755 10.967a.796.796 0 100-1.592.796.796 0 000 1.592z" fill="#FFBD49"/><path d="M4.358 11.384a.585.585 0 100-1.17.585.585 0 000 1.17z" fill="#FFDB6F"/><path d="M14.732 14.425H6.268a.24.24 0 000 .479h8.464a.24.24 0 000-.48zm0 .955H6.268a.24.24 0 000 .48h8.464a.24.24 0 000-.48z" fill="#6F6F6F"/><path d="M17.77 5.584v.082a.58.58 0 01-.608.58c-.31-.02-.548-.297-.548-.614V4.455a.486.486 0 00-.509-.482h-.019a.487.487 0 00-.509.482V5.52a.58.58 0 01-.614.574c-.31-.013-.548-.297-.548-.607V4.56a.514.514 0 00-.515-.51h-.04a.485.485 0 00-.482.483V5.74c0 .33-.278.593-.614.58-.31-.02-.542-.297-.542-.614V4.091a.46.46 0 00-.489-.456h-.04a.486.486 0 00-.487.483v1.65c0 .317-.258.58-.581.58a.576.576 0 01-.574-.56V4.402c0-.317-.238-.593-.548-.614a.58.58 0 00-.608.581l-.007 1.28a.58.58 0 01-.607.58c-.305-.019-.536-.286-.545-.59v-1.5c0-.312-.234-.59-.546-.61a.581.581 0 00-.61.58v1.573a.584.584 0 01-.61.566c-.311-.02-.542-.297-.542-.614V4.455a.491.491 0 00-.515-.482H4.9a.488.488 0 00-.516.482V5.52c0 .33-.277.595-.607.574-.288-.01-.502-.251-.538-.53a33.249 33.249 0 00-.902 2.048c5.431.428 10.888.428 16.32 0a32.912 32.912 0 00-.887-2.028z" fill="#5BAADF"/></g></symbol><symbol id="icon-phone" viewBox="0 0 25 25"><path d="M18.75 10.156h-1.563a2.346 2.346 0 00-2.343-2.344V6.25a3.91 3.91 0 013.906 3.906z" fill="#2C64E5"/><path d="M21.875 10.156h-1.563a5.475 5.475 0 00-5.468-5.469V3.125a7.04 7.04 0 017.031 7.031zm-5.99 6.627l1.75-1.75a1.693 1.693 0 011.826-.375l2.131.853a1.693 1.693 0 011.064 1.572v3.876a1.693 1.693 0 01-1.784 1.694C5.932 21.723 2.916 9.07 2.355 4.225a1.69 1.69 0 011.683-1.881h3.807a1.693 1.693 0 011.572 1.064l.853 2.131a1.693 1.693 0 01-.375 1.826l-1.75 1.75s.97 6.822 7.74 7.668z" fill="#2C64E5"/></symbol><symbol id="icon-staple" viewBox="0 0 20 20"><g clip-path="url(#clip0)"><path d="M4.852 20c-1.278 0-2.484-.506-3.415-1.437-.975-.974-1.484-2.252-1.434-3.596.052-1.388.68-2.722 1.814-3.857L3.86 9.06a.781.781 0 111.107 1.102l-2.044 2.053c-1.657 1.657-1.813 3.813-.381 5.245 1.432 1.431 3.588 1.275 5.243-.38l2.808-2.809c.851-.85 1.32-1.823 1.358-2.81.033-.905-.314-1.77-.978-2.433a3.459 3.459 0 00-.731-.561.781.781 0 11.773-1.358c.384.22.742.493 1.063.814.975.975 1.484 2.252 1.434 3.596-.052 1.389-.679 2.722-1.814 3.857L8.89 18.183c-1.135 1.135-2.468 1.762-3.857 1.814-.06.002-.12.003-.181.003zm5.198-7.4a.781.781 0 00-.292-1.065 3.46 3.46 0 01-.732-.56c-1.432-1.433-1.275-3.589.38-5.244l2.808-2.808c1.656-1.656 3.812-1.812 5.244-.38 1.432 1.431 1.275 3.587-.381 5.244L15.031 9.84a.781.781 0 001.107 1.102l2.044-2.051c1.134-1.135 1.762-2.469 1.813-3.857.05-1.344-.459-2.622-1.433-3.596C17.588.463 16.31-.046 14.967.004c-1.389.052-2.723.679-3.857 1.814L8.3 4.626C7.167 5.76 6.54 7.094 6.488 8.483c-.05 1.344.459 2.621 1.433 3.596a5.02 5.02 0 001.063.814.778.778 0 001.066-.292z"/></g></symbol><symbol id="icon-star" viewBox="0 0 16 16"><path d="M14.19 5.517l-3.968-.576-1.773-3.595a.502.502 0 00-.897 0L5.778 4.94l-3.967.576a.499.499 0 00-.276.854l2.87 2.798-.678 3.951a.5.5 0 00.725.527L8 11.781l3.549 1.866a.5.5 0 00.725-.527l-.678-3.951 2.87-2.798a.499.499 0 00-.277-.854z" fill="#FEC353"/></symbol><symbol id="icon-tg" viewBox="0 0 24 28"><path d="M23.93 5.392l-3.62 17.435c-.273 1.23-.986 1.536-1.998.957l-5.518-4.151-2.663 2.614c-.294.3-.54.552-1.109.552l.397-5.736 10.227-9.434c.444-.405-.097-.629-.692-.224L6.311 15.53.868 13.792c-1.184-.377-1.206-1.208.246-1.788l21.29-8.373c.985-.377 1.848.225 1.526 1.761z"/></symbol></svg>