<svg width="21" height="21" viewBox="0 0 21 21" fill="none" xmlns="http://www.w3.org/2000/svg">
<g clip-path="url(#clip0)">
<path d="M20.7068 11.405C20.6759 10.7816 20.4443 10.1844 20.0636 9.68892C19.2052 8.57131 19.0379 7.68402 19.0379 7.68402C18.3639 5.91802 17.7647 4.74133 17.3244 3.99451C16.861 3.21026 16.0597 2.68199 15.1561 2.56584C13.3389 2.33092 7.65955 2.33092 5.84238 2.56584C4.93935 2.68267 4.13805 3.21093 3.67472 3.99451C3.23435 4.74133 2.63587 5.91802 1.96121 7.68402C1.96121 7.68402 1.79388 8.57131 0.935479 9.68892C0.555513 10.1844 0.323169 10.7816 0.29301 11.405C0.22804 12.7576 0.619849 13.0549 0.97029 16.1157C0.997869 16.3566 1.20128 16.5377 1.44412 16.5377H19.5564C19.7992 16.5377 20.0026 16.3559 20.0302 16.1157C20.1286 15.2573 20.4207 13.5162 20.4207 13.5162C20.6766 12.6506 20.7323 11.9451 20.7068 11.405Z" fill="#E95353"/>
<path d="M18.6567 7.61259C18.1252 6.28235 17.5831 5.12076 17.0436 4.19476C16.6348 3.49452 15.9135 3.00563 15.1155 2.89866C13.2944 2.65714 7.69321 2.65912 5.88517 2.89866C5.08717 3.00563 4.3659 3.49456 3.95705 4.19476C3.41038 5.13256 2.8611 6.30989 2.3374 7.61259C7.76863 8.03981 13.2248 8.03981 18.6567 7.61259Z" fill="#3E8CC7"/>
<path d="M17.8857 9.15121C17.6783 9.21618 17.4854 9.30741 17.3239 9.39798C17.0299 9.56205 16.728 9.71496 16.4131 9.83441C15.8907 10.0326 15.8021 10.3286 15.8021 10.3286C15.7863 10.3489 15.7712 10.3693 15.7568 10.3903C15.3604 10.9789 15.8808 11.7625 16.5836 11.6628C17.6002 11.519 18.4376 11.2244 18.8628 11.0537C19.1063 10.9559 19.2966 10.7525 19.359 10.4972C19.3649 10.4729 19.3701 10.4487 19.3747 10.425C19.5309 9.5824 18.7041 8.89594 17.8857 9.15121Z" fill="white"/>
<path d="M18.9717 13.8682H17.841C17.671 13.8682 17.5857 14.0736 17.7058 14.1943L18.8366 15.3251C18.9566 15.4452 19.1627 15.3599 19.1627 15.1899V14.0591C19.1627 13.9535 19.0774 13.8682 18.9717 13.8682Z" fill="#FFE21F"/>
<path d="M20.0303 16.1144C20.0028 16.3559 19.7987 16.5377 19.5559 16.5377H17.3804V17.8003C17.3804 18.2473 17.7426 18.6102 18.1902 18.6102H19.5566C20.0035 18.6102 20.3664 18.2479 20.3664 17.8003V13.8477C20.2765 14.395 20.1019 15.489 20.0303 16.1144Z" fill="#454545"/>
<path d="M20.9844 6.72934C20.9188 6.43532 20.6425 6.23584 20.3413 6.23584H19.7953C19.4454 6.23584 19.162 6.51937 19.162 6.86913V7.25828H18.8726L19.0386 7.65271H19.6752C20.0046 7.65271 20.3308 7.58182 20.6301 7.44469C20.8997 7.3213 21.0507 7.02597 20.9844 6.72934Z" fill="#ED6262"/>
<path d="M18.2438 10.9671C18.6835 10.9671 19.0399 10.6107 19.0399 10.1711C19.0399 9.73141 18.6835 9.375 18.2438 9.375C17.8042 9.375 17.4478 9.73141 17.4478 10.1711C17.4478 10.6107 17.8042 10.9671 18.2438 10.9671Z" fill="#FFBD49"/>
<path d="M16.6426 11.3838C16.9655 11.3838 17.2273 11.122 17.2273 10.7991C17.2273 10.4761 16.9655 10.2144 16.6426 10.2144C16.3197 10.2144 16.0579 10.4761 16.0579 10.7991C16.0579 11.122 16.3197 11.3838 16.6426 11.3838Z" fill="#FFDB6F"/>
<path d="M15.1272 10.7998L14.213 12.3919H6.78675L5.87256 10.7998H15.1272Z" fill="#6F6F6F"/>
<path d="M5.24262 10.3905C5.22883 10.3695 5.21373 10.3491 5.19732 10.3288C5.19732 10.3288 5.1087 10.0328 4.58632 9.83463C4.27132 9.71518 3.97008 9.56227 3.67543 9.39819C3.51334 9.30763 3.32105 9.21639 3.11366 9.15142C2.29595 8.89548 1.46843 9.58257 1.62396 10.4252C1.62857 10.4495 1.63381 10.4732 1.63906 10.4974C1.70141 10.7527 1.89171 10.9562 2.13518 11.054C2.56044 11.2246 3.39782 11.5192 4.41505 11.663C5.11856 11.7627 5.639 10.9791 5.24262 10.3905Z" fill="white"/>
<path d="M3.1589 13.8682H2.02814C1.92247 13.8682 1.83716 13.9535 1.83716 14.0591V15.1899C1.83716 15.3599 2.04324 15.4452 2.16332 15.3251L3.29408 14.1943C3.41417 14.0742 3.32885 13.8682 3.1589 13.8682Z" fill="#FFE21F"/>
<path d="M18.0288 15.8413C16.8515 13.8042 15.4976 13.8679 15.4976 13.8679H5.50206C5.50206 13.8679 4.14885 13.8042 2.97085 15.8413H0.935791L0.960747 16.1038C0.983715 16.3506 1.18979 16.5376 1.43652 16.5376H19.5639C19.8106 16.5376 20.0167 16.3506 20.0397 16.1038L20.0646 15.8413L18.0288 15.8413Z" fill="#777777"/>
<path d="M1.44402 16.5381C1.20119 16.5381 0.997099 16.3557 0.969562 16.1149C0.898036 15.4894 0.722794 14.3948 0.633545 13.8481V17.8008C0.633545 18.2478 0.995787 18.6107 1.44339 18.6107H2.80971C3.25663 18.6107 3.61955 18.2484 3.61955 17.8008V16.5382H1.44402V16.5381Z" fill="#454545"/>
<path d="M1.83728 7.25827V6.86913C1.83728 6.51932 1.55376 6.23584 1.20463 6.23584H0.658642C0.357435 6.23584 0.0811431 6.43536 0.0154961 6.72933C-0.0507853 7.02529 0.100812 7.3213 0.369871 7.44401C0.669766 7.58118 0.995294 7.65203 1.32475 7.65203H1.96134L2.12736 7.2576H1.83728V7.25827Z" fill="#ED6262"/>
<path d="M2.75528 10.9671C3.19493 10.9671 3.55134 10.6107 3.55134 10.1711C3.55134 9.73141 3.19493 9.375 2.75528 9.375C2.31563 9.375 1.95923 9.73141 1.95923 10.1711C1.95923 10.6107 2.31563 10.9671 2.75528 10.9671Z" fill="#FFBD49"/>
<path d="M4.35792 11.3838C4.68086 11.3838 4.94265 11.122 4.94265 10.7991C4.94265 10.4761 4.68086 10.2144 4.35792 10.2144C4.03499 10.2144 3.77319 10.4761 3.77319 10.7991C3.77319 11.122 4.03499 11.3838 4.35792 11.3838Z" fill="#FFDB6F"/>
<path d="M14.7324 14.4248H6.26786C6.13529 14.4248 6.02832 14.5324 6.02832 14.6643C6.02832 14.7969 6.13529 14.9039 6.26786 14.9039H14.7317C14.8643 14.9039 14.9712 14.7963 14.9712 14.6643C14.9719 14.5318 14.8643 14.4248 14.7324 14.4248Z" fill="#6F6F6F"/>
<path d="M14.7324 15.3809H6.26786C6.13529 15.3809 6.02832 15.4885 6.02832 15.6204C6.02832 15.753 6.13529 15.8599 6.26786 15.8599H14.7317C14.8643 15.8599 14.9712 15.7523 14.9712 15.6204C14.9719 15.4878 14.8643 15.3809 14.7324 15.3809Z" fill="#6F6F6F"/>
<path d="M17.7696 5.58365V5.66567C17.7696 5.99576 17.4985 6.26026 17.1619 6.24647C16.8514 6.2268 16.6139 5.94919 16.6139 5.63221V4.45488C16.6139 4.17728 16.3829 3.96595 16.1053 3.97319C16.0987 3.97319 16.0987 3.97319 16.0922 3.97319C16.0922 3.97319 16.0922 3.97319 16.0856 3.97319C15.808 3.96663 15.577 4.17795 15.577 4.45488V5.51999C15.577 5.85009 15.2929 6.11458 14.9628 6.09423C14.6523 6.08112 14.4148 5.79696 14.4148 5.48653V4.56054C14.4148 4.28294 14.1838 4.05195 13.8997 4.05195H13.8603C13.5958 4.05195 13.3779 4.26982 13.3779 4.53432V5.73855C13.3779 6.06864 13.1003 6.33246 12.7636 6.31935C12.4532 6.29968 12.2222 6.02207 12.2222 5.70509V4.09065C12.2222 3.83339 11.9978 3.61551 11.7333 3.63518H11.6939C11.4229 3.63518 11.2057 3.85306 11.2057 4.11755V5.76807C11.2057 6.08506 10.9484 6.34887 10.6249 6.34887C10.3145 6.34887 10.0572 6.09817 10.0506 5.78778V4.40243C10.0506 4.08545 9.81309 3.80852 9.50266 3.78817C9.16601 3.77506 8.89496 4.03888 8.89496 4.36897L8.88841 5.64871C8.88841 5.9788 8.61804 6.24262 8.28071 6.2295C7.9762 6.21047 7.74521 5.94272 7.73599 5.63953V4.1379C7.73599 3.82616 7.5017 3.54724 7.18996 3.52889C6.85593 3.51446 6.58028 3.7776 6.58028 4.10837V5.68145C6.5711 6.00367 6.30073 6.26026 5.96928 6.24714C5.65885 6.22747 5.42786 5.94987 5.42786 5.63289V4.45488C5.42786 4.17728 5.19031 3.96595 4.91271 3.97319C4.90615 3.97319 4.90615 3.97319 4.90615 3.97319C4.8996 3.97319 4.8996 3.97319 4.8996 3.97319C4.61544 3.96663 4.38445 4.17795 4.38445 4.45488V5.51999C4.38445 5.85009 4.10684 6.11458 3.77675 6.09423C3.48929 6.08307 3.27534 5.8429 3.23863 5.56462C2.93345 6.1966 2.63093 6.88107 2.33691 7.61215C7.76814 8.04004 13.225 8.04004 18.6562 7.61215C18.3635 6.87912 18.0668 6.20315 17.7696 5.58365Z" fill="#5BAADF"/>
</g>
<defs>
<clipPath>
<rect width="21" height="21" fill="white"/>
</clipPath>
</defs>
</svg>
