<svg width="11" height="11" viewBox="0 0 11 11" fill="none" xmlns="http://www.w3.org/2000/svg">
<path fill-rule="evenodd" clip-rule="evenodd" d="M0.313532 5.6026C0.312711 5.42808 0.381249 5.26039 0.504069 5.13641C0.626888 5.01243 0.793928 4.94232 0.968443 4.94149L8.59211 4.90563L5.75334 2.09476C5.69187 2.03387 5.643 1.96147 5.60952 1.88169C5.57603 1.80191 5.55859 1.71632 5.55818 1.6298C5.55777 1.54328 5.57441 1.45752 5.60714 1.37743C5.63988 1.29734 5.68806 1.22449 5.74896 1.16302C5.80985 1.10155 5.88225 1.05268 5.96203 1.0192C6.0418 0.98571 6.1274 0.968267 6.21392 0.96786C6.30044 0.967453 6.38619 0.98409 6.46628 1.01682C6.54637 1.04956 6.61923 1.09775 6.68069 1.15864L10.6473 5.0881C10.7089 5.14894 10.7578 5.22132 10.7914 5.30111C10.8249 5.38089 10.8424 5.46651 10.8428 5.55306C10.8432 5.63961 10.8265 5.72539 10.7938 5.80549C10.761 5.88559 10.7127 5.95843 10.6517 6.01984L6.72222 9.98645C6.66133 10.0479 6.58893 10.0968 6.50915 10.1303C6.42938 10.1638 6.34378 10.1812 6.25726 10.1816C6.17074 10.182 6.08499 10.1654 6.0049 10.1326C5.92481 10.0999 5.85195 10.0517 5.79049 9.99083C5.66635 9.86786 5.59615 9.70061 5.59533 9.52587C5.59492 9.43935 5.61156 9.3536 5.64429 9.27351C5.67702 9.19342 5.72521 9.12056 5.7861 9.0591L8.5983 6.22164L0.974634 6.25751C0.80012 6.25833 0.632427 6.18979 0.508446 6.06697C0.384466 5.94415 0.314353 5.77711 0.313532 5.6026Z" fill="white"/>
</svg>
