<svg width="21" height="21" viewBox="0 0 21 21" fill="none" xmlns="http://www.w3.org/2000/svg">
<path d="M17.1706 12.6718C17.1706 11.4721 16.1981 10.4995 14.9983 10.4995H6.30904C5.10928 10.4995 4.13672 11.4721 4.13672 12.6718V15.2062L5.58493 15.9303H17.1706V12.6718Z" fill="#4398D1"/>
<path d="M14.9985 10.4995H13.5503C14.75 10.4995 15.7226 11.4721 15.7226 12.6718V15.9303H17.1708V12.6718C17.1708 11.4721 16.1983 10.4995 14.9985 10.4995Z" fill="#3E8CC7"/>
<path d="M9.20557 7.96533V10.4997L10.6538 12.672L12.102 10.4997V7.96533H9.20557Z" fill="#FEC9A3"/>
<path d="M9.20557 10.4995L10.6538 12.6718L12.102 10.4995H9.20557Z" fill="#EBEBEB"/>
<path d="M5.94727 13.396H6.67137V15.9304H5.94727V13.396Z" fill="#2A7DB8"/>
<path d="M14.6367 13.396H15.3608V15.9304H14.6367V13.396Z" fill="#2A7DB8"/>
<path d="M12.8263 10.4995H12.1022L10.654 12.6718L9.2058 10.4995H8.48169V11.9477L10.292 12.5513V15.9303H11.0161V12.5513L12.8263 11.9477V10.4995Z" fill="#2A7DB8"/>
<path d="M11.7402 14.1201H13.9126V14.8442H11.7402V14.1201Z" fill="#2A7DB8"/>
<path d="M9.20557 7.96533V9.43274C10.1169 9.88992 11.1906 9.88992 12.102 9.43274V7.96533H9.20557Z" fill="#F0B081"/>
<path d="M7.39551 3.62061V5.79293C7.39551 7.59251 8.8544 9.05141 10.654 9.05141C12.4536 9.05141 13.9125 7.59251 13.9125 5.79293V3.62061H7.39551Z" fill="#FEC9A3"/>
<path d="M12.4641 3.62061V5.79293C12.4631 7.31273 11.4115 8.63002 9.92969 8.96777C11.6785 9.37227 13.4242 8.28249 13.8287 6.53369C13.8849 6.29079 13.9129 6.04224 13.9123 5.79293V3.62061H12.4641Z" fill="#F7BB8F"/>
<path d="M13.9125 3.25848V1.81027C13.9125 0.810502 13.102 0 12.1022 0H9.20577C8.20601 0 7.39551 0.810502 7.39551 1.81027V3.98259H16.0848V3.25848H13.9125Z" fill="#4398D1"/>
<path d="M10.2917 4.70654H11.0159V6.51681H10.2917V4.70654Z" fill="#F0B081"/>
<path d="M7.39547 5.79293H5.58521V3.62061H7.39547V5.79293Z" fill="#87CED9"/>
<path d="M7.19454 8.99062L6.10838 8.26651C6.00768 8.19935 5.94727 8.0863 5.94727 7.96528V5.79297H6.67137V7.77159L7.59642 8.38707L7.19454 8.99062Z" fill="#87CED9"/>
<path d="M17.5329 15.9306H20.8489C20.0508 14.0991 17.9191 13.2615 16.0877 14.0597C15.2502 14.4247 14.5818 15.0931 14.2168 15.9306H7.09087C6.29105 14.0979 4.15702 13.2607 2.32439 14.0605C0.491724 14.8603 -0.345524 16.9944 0.454297 18.827C1.25412 20.6596 3.38815 21.4969 5.22077 20.697C6.05766 20.3318 6.7256 19.6638 7.09083 18.827H14.2168C15.0149 20.6584 17.1466 21.496 18.978 20.6979C19.8155 20.3329 20.4839 19.6645 20.8489 18.827H17.5328V15.9306H17.5329ZM5.58509 18.4649L3.77482 19.5511L1.93451 18.5855L1.96456 16.2926L3.77482 15.2064L5.58509 16.2926V18.4649Z" fill="#87CED9"/>
<path d="M12.4641 1.81027V3.25848H13.9123V1.81027C13.9123 0.810502 13.1018 0 12.102 0H10.6538C11.6536 0 12.4641 0.810502 12.4641 1.81027Z" fill="#3E8CC7"/>
<path d="M14.6362 3.2583H16.0844V3.98241H14.6362V3.2583Z" fill="#3E8CC7"/>
<path d="M17.5328 15.9303H20.8489C20.0507 14.0989 17.919 13.2613 16.0876 14.0595C15.2501 14.4245 14.5818 15.0929 14.2168 15.9303H12.4641L9.56763 18.8268H14.2168C15.0149 20.6582 17.1466 21.4958 18.978 20.6976C19.8155 20.3326 20.4839 19.6642 20.8489 18.8268H17.5328V15.9303Z" fill="#71C4D1"/>
<path d="M7.0332 17.0166H14.2743V17.7407H7.0332V17.0166Z" fill="#59B3C2"/>
<path d="M5.94727 5.79297H6.67137V6.51707H5.94727V5.79297Z" fill="#71C4D1"/>
</svg>
