<svg width="21" height="21" viewBox="0 0 21 21" fill="none" xmlns="http://www.w3.org/2000/svg">
<g clip-path="url(#clip0)">
<path d="M19.5823 16.3851H1.41775C0.634759 16.3851 0 15.7504 0 14.9674V14.6883C0 13.9053 0.634759 13.2705 1.41775 13.2705H19.5823C20.3653 13.2705 21 13.9053 21 14.6883V14.9674C21 15.7504 20.3653 16.3851 19.5823 16.3851Z" fill="#E94444"/>
<path d="M20.9999 14.6881V14.9673C20.9999 15.7505 20.3654 16.3854 19.5823 16.3854H18.7527C19.5358 16.3854 20.1703 15.7505 20.1703 14.9673V14.6881C20.1703 13.9054 19.5358 13.2705 18.7527 13.2705H19.5823C20.3654 13.2705 20.9999 13.9054 20.9999 14.6881Z" fill="#D83131"/>
<path d="M19.5824 16.3853H10.5001H1.41785C1.41785 16.3853 0.791436 19.41 4.35611 20.6C4.96675 20.8038 5.60425 20.8987 6.24354 20.8987H10.5001H14.7567C15.396 20.8987 16.0335 20.8038 16.6442 20.6C20.2088 19.41 19.5824 16.3853 19.5824 16.3853Z" fill="#FDB62F"/>
<path d="M16.6438 20.6002C16.033 20.8042 15.3956 20.8992 14.7564 20.8992H13.7942C14.4337 20.8992 15.0712 20.8042 15.6819 20.6002C19.2463 19.4102 18.6198 16.3857 18.6198 16.3857H19.5821C19.5821 16.3857 20.2086 19.4102 16.6438 20.6002Z" fill="#F2A40F"/>
<path d="M19.6154 13.8355C19.6154 14.5433 18.7929 14.927 18.2461 14.4776C18.0213 14.2929 17.7559 14.1465 17.3351 14.1465C16.1951 14.1465 16.1951 15.0495 15.0551 15.0495C13.9151 15.0495 13.9151 14.1465 12.7751 14.1465C11.6351 14.1465 11.6351 15.0495 10.4952 15.0495C9.35522 15.0495 9.35522 14.1465 8.21525 14.1465C7.07524 14.1465 7.07524 15.0495 5.93522 15.0495C4.79525 15.0495 4.79525 14.1465 3.65527 14.1465C3.23474 14.1465 2.96936 14.2928 2.74462 14.4774C2.19774 14.9269 1.37524 14.5432 1.37524 13.8354V12.1602H19.6154V13.8355H19.6154Z" fill="#BBEC6C"/>
<path d="M19.6157 12.1602V13.8354C19.6157 14.4978 18.8955 14.8762 18.3552 14.5539C18.5939 14.4145 18.7654 14.159 18.7654 13.8354V12.1602H19.6157Z" fill="#A2E62E"/>
<path d="M1.38452 10.8179V12.1726H3.33995C3.74674 12.1726 4.07653 12.5024 4.07653 12.9092V16.8109C4.07653 17.331 4.49816 17.7526 5.01826 17.7526C5.53836 17.7526 5.95995 17.331 5.95995 16.8109V12.9092C5.95995 12.5024 6.28974 12.1726 6.69653 12.1726H19.6156V10.8179H1.38452Z" fill="#FEE45A"/>
<path d="M18.7654 10.8179H19.6157V12.1726H18.7654V10.8179Z" fill="#FEDF30"/>
<path d="M19.5823 10.9105H1.41775C0.634759 10.9105 0 10.2758 0 9.49277V9.21365C0 8.43066 0.634759 7.7959 1.41775 7.7959H19.5823C20.3653 7.7959 21 8.43066 21 9.21365V9.49277C21 10.2758 20.3653 10.9105 19.5823 10.9105Z" fill="#9E5528"/>
<path d="M20.9999 9.21353V9.49273C20.9999 10.2759 20.3654 10.9104 19.5823 10.9104H18.7527C19.5358 10.9104 20.1703 10.2759 20.1703 9.49273V9.21353C20.1703 8.43078 19.5358 7.7959 18.7527 7.7959H19.5823C20.3654 7.79594 20.9999 8.43082 20.9999 9.21353Z" fill="#904D24"/>
<path d="M10.4999 0.101562C3.41893 0.204037 1.03982 4.0451 0.254413 6.27692C-0.0147351 7.04167 0.559095 7.842 1.36981 7.842H10.4999H19.6299C20.4466 7.842 21.0131 7.03361 20.7407 6.26363C19.9505 4.02989 17.5669 0.203832 10.4999 0.101562Z" fill="#FDB62F"/>
<path d="M19.63 7.84228H19.5291C19.8041 7.5356 19.9173 7.0891 19.764 6.65488C18.9736 4.42073 16.59 0.594959 9.52301 0.492731C7.69479 0.518901 6.1796 0.794755 4.92505 1.22771C6.34775 0.574227 8.16918 0.135339 10.5 0.101562C17.567 0.2042 19.9507 4.03001 20.741 6.26371C21.013 7.03378 20.4465 7.84228 19.63 7.84228Z" fill="#F2A40F"/>
<path d="M7.5772 3.34904C7.52797 3.34904 7.47804 3.33714 7.43167 3.31212C7.28266 3.2316 7.22717 3.0455 7.30769 2.8965L7.58252 2.38797C7.66303 2.23896 7.84913 2.18347 7.99814 2.26399C8.14715 2.3445 8.20264 2.5306 8.12212 2.67961L7.84729 3.18813C7.79184 3.29077 7.68626 3.34904 7.5772 3.34904Z" fill="#E57917"/>
<path d="M10.4961 3.3838C10.3268 3.3838 10.1895 3.24648 10.1895 3.07711V2.49907C10.1895 2.3297 10.3268 2.19238 10.4961 2.19238C10.6655 2.19238 10.8028 2.3297 10.8028 2.49907V3.07711C10.8028 3.24648 10.6655 3.3838 10.4961 3.3838Z" fill="#E57917"/>
<path d="M13.4227 3.34449C13.3169 3.34449 13.214 3.28969 13.1571 3.1916L12.8671 2.69153C12.7821 2.54502 12.832 2.35737 12.9786 2.2724C13.1251 2.18742 13.3127 2.23731 13.3977 2.38382L13.6877 2.88389C13.7727 3.0304 13.7228 3.21805 13.5763 3.30302C13.5278 3.33116 13.475 3.34449 13.4227 3.34449Z" fill="#E57917"/>
</g>
<defs>
<clipPath>
<rect width="21" height="21" fill="white"/>
</clipPath>
</defs>
</svg>
