<svg width="21" height="21" viewBox="0 0 21 21" fill="none" xmlns="http://www.w3.org/2000/svg">
<g clip-path="url(#clip0)">
<path d="M11.5613 1.47796V0.0627441H9.43844V1.47796L5.90039 3.9546H15.0993L11.5613 1.47796Z" fill="#4398D1"/>
<path d="M18.6377 18.8145H2.36264C1.97182 18.8145 1.65503 18.4977 1.65503 18.1069V14.4655C1.65499 13.8869 2.00724 13.3665 2.5445 13.1515L3.42405 12.7998H17.5763L18.4558 13.1515C18.9931 13.3665 19.3453 13.8869 19.3453 14.4655V18.1069C19.3453 18.4977 19.0285 18.8145 18.6377 18.8145Z" fill="#DE4C3C"/>
<path d="M18.4559 13.1515L17.5764 12.7998H16.1611L17.0407 13.1515C17.5779 13.3665 17.9302 13.8869 17.9302 14.4655V18.1069C17.9302 18.4977 17.6134 18.8145 17.2225 18.8145H18.6378C19.0286 18.8145 19.3454 18.4977 19.3454 18.1069V14.4655C19.3454 13.8869 18.9932 13.3665 18.4559 13.1515Z" fill="#D64333"/>
<path d="M17.576 12.7998H3.42383L5.8297 9.49068C6.0962 9.12431 6.52196 8.90769 6.97497 8.90796H14.0249C14.4779 8.90769 14.9036 9.12431 15.1701 9.49068L17.576 12.7998Z" fill="#87CED9"/>
<path d="M3.77768 14.2151H4.48529C4.87611 14.2151 5.1929 14.5319 5.1929 14.9227V15.2765C5.1929 15.6673 4.87611 15.9841 4.48529 15.9841H3.77768C3.38686 15.9841 3.07007 15.6673 3.07007 15.2765V14.9227C3.07007 14.5319 3.38686 14.2151 3.77768 14.2151Z" fill="#EBEBEB"/>
<path d="M16.5145 14.2151H17.2221C17.6129 14.2151 17.9297 14.5319 17.9297 14.9227V15.2765C17.9297 15.6673 17.6129 15.9841 17.2221 15.9841H16.5145C16.1237 15.9841 15.8069 15.6673 15.8069 15.2765V14.9227C15.8069 14.5319 16.1237 14.2151 16.5145 14.2151Z" fill="#EBEBEB"/>
<path d="M7.31576 14.2151H13.6843C14.0751 14.2151 14.3919 14.5319 14.3919 14.9227V15.2765C14.3919 15.6673 14.0751 15.9841 13.6843 15.9841H7.31576C6.92494 15.9841 6.60815 15.6673 6.60815 15.2765V14.9227C6.60815 14.5319 6.92494 14.2151 7.31576 14.2151Z" fill="#BF362C"/>
<path d="M1.65503 17.3992H19.3453V18.1068C19.3453 18.4976 19.0285 18.8144 18.6377 18.8144H2.36264C1.97182 18.8144 1.65503 18.4976 1.65503 18.1068V17.3992Z" fill="#D64333"/>
<path d="M1.65503 18.1069V20.5836C1.65503 20.779 1.81345 20.9374 2.00883 20.9374H4.13166C4.32705 20.9374 4.48547 20.779 4.48547 20.5836V18.8145H2.36264C1.97182 18.8145 1.65503 18.4978 1.65503 18.1069Z" fill="#696969"/>
<path d="M18.6377 18.8145H16.5149V20.5836C16.5149 20.779 16.6733 20.9374 16.8687 20.9374H18.9915C19.1869 20.9374 19.3453 20.779 19.3453 20.5836V18.1069C19.3453 18.4978 19.0285 18.8145 18.6377 18.8145Z" fill="#696969"/>
<path d="M1.65503 18.1069V19.1683C1.65503 19.3637 1.81345 19.5222 2.00883 19.5222H4.13166C4.32705 19.5222 4.48547 19.3637 4.48547 19.1683V18.8145H2.36264C1.97182 18.8145 1.65503 18.4978 1.65503 18.1069Z" fill="#5E5E5F"/>
<path d="M18.6377 18.8145H16.5149V19.1683C16.5149 19.3637 16.6733 19.5222 16.8687 19.5222H18.9915C19.1869 19.5222 19.3453 19.3637 19.3453 19.1683V18.1069C19.3453 18.4978 19.0285 18.8145 18.6377 18.8145Z" fill="#5E5E5F"/>
<path d="M15.1704 9.49068C14.9039 9.12431 14.4781 8.90769 14.0251 8.90796H13.3306L9.43872 12.7998H17.5762L15.1704 9.49068Z" fill="#71C4D1"/>
<path d="M10.1462 5.01562H10.8538V6.07704H10.1462V5.01562Z" fill="#87CED9"/>
<path d="M10.1462 6.78491H10.8538V7.84633H10.1462V6.78491Z" fill="#87CED9"/>
<path d="M6.01611 5.61284L6.6887 4.79175L7.23612 5.24015L6.56354 6.06124L6.01611 5.61284Z" fill="#87CED9"/>
<path d="M4.89478 6.98165L5.56754 6.16064L6.11487 6.60914L5.44211 7.43014L4.89478 6.98165Z" fill="#87CED9"/>
<path d="M3.77417 8.35006L4.44693 7.52905L4.99427 7.97754L4.32151 8.79855L3.77417 8.35006Z" fill="#87CED9"/>
<path d="M2.65356 9.71849L3.32655 8.89722L3.87388 9.34571L3.2009 10.167L2.65356 9.71849Z" fill="#87CED9"/>
<path d="M8.09375 5.93684L8.39121 4.91797L9.07047 5.11628L8.77301 6.13515L8.09375 5.93684Z" fill="#87CED9"/>
<path d="M7.59766 7.63275L7.8956 6.61401L8.57478 6.81268L8.27683 7.83142L7.59766 7.63275Z" fill="#87CED9"/>
<path d="M3.90039 5.40294L4.68062 4.68335L5.16011 5.20327L4.37988 5.92286L3.90039 5.40294Z" fill="#87CED9"/>
<path d="M2.60034 6.60387L3.38057 5.88428L3.86007 6.40419L3.07984 7.12379L2.60034 6.60387Z" fill="#87CED9"/>
<path d="M1.30029 7.80187L2.08052 7.08228L2.56002 7.60219L1.77979 8.32179L1.30029 7.80187Z" fill="#87CED9"/>
<path d="M0 9.00109L0.780228 8.28149L1.25972 8.80141L0.479494 9.52101L0 9.00109Z" fill="#87CED9"/>
<path d="M13.7649 5.31304L14.3121 4.86499L14.9845 5.68621L14.4373 6.13426L13.7649 5.31304Z" fill="#87CED9"/>
<path d="M14.8862 6.68116L15.4336 6.23267L16.1065 7.05394L15.5592 7.50243L14.8862 6.68116Z" fill="#87CED9"/>
<path d="M16.0061 8.05005L16.5534 7.60156L17.2262 8.42257L16.6789 8.87106L16.0061 8.05005Z" fill="#87CED9"/>
<path d="M17.127 9.41842L17.6743 8.96997L18.347 9.79102L17.7996 10.2395L17.127 9.41842Z" fill="#87CED9"/>
<path d="M11.9287 5.19203L12.608 4.9939L12.9052 6.01286L12.2259 6.21099L11.9287 5.19203Z" fill="#87CED9"/>
<path d="M12.425 6.88656L13.1042 6.68799L13.402 7.70677L12.7229 7.90534L12.425 6.88656Z" fill="#87CED9"/>
<path d="M15.8396 5.27569L16.3191 4.75586L17.0993 5.47554L16.6198 5.99537L15.8396 5.27569Z" fill="#87CED9"/>
<path d="M17.1401 6.47608L17.6198 5.9563L18.3999 6.67607L17.9202 7.19585L17.1401 6.47608Z" fill="#87CED9"/>
<path d="M18.4399 7.67506L18.9196 7.15527L19.6997 7.87504L19.22 8.39483L18.4399 7.67506Z" fill="#87CED9"/>
<path d="M19.7405 8.87465L20.22 8.35474L21.0002 9.07433L20.5207 9.59425L19.7405 8.87465Z" fill="#87CED9"/>
<path d="M12.3939 2.06079L10.5 3.95471H15.0995L12.3939 2.06079Z" fill="#3E8CC7"/>
</g>
<defs>
<clipPath>
<rect width="21" height="21" fill="white"/>
</clipPath>
</defs>
</svg>
