<svg width="11" height="11" viewBox="0 0 11 11" fill="none" xmlns="http://www.w3.org/2000/svg">
<path fill-rule="evenodd" clip-rule="evenodd" d="M5.56003 0.313614C5.73454 0.313027 5.90214 0.38179 6.02596 0.504776C6.14977 0.627762 6.21966 0.794896 6.22025 0.969412L6.24588 8.59312L9.06056 5.75813C9.12153 5.69674 9.194 5.64797 9.27382 5.61459C9.35364 5.58121 9.43926 5.56388 9.52578 5.56359C9.6123 5.5633 9.69803 5.58005 9.77808 5.61289C9.85812 5.64573 9.93092 5.69402 9.9923 5.75499C10.0537 5.81597 10.1025 5.88843 10.1358 5.96826C10.1692 6.04808 10.1865 6.1337 10.1868 6.22022C10.1871 6.30674 10.1704 6.39247 10.1375 6.47251C10.1047 6.55256 10.0564 6.62535 9.99543 6.68674L6.06065 10.6481C5.99973 10.7096 5.92728 10.7584 5.84745 10.7919C5.76762 10.8253 5.68198 10.8427 5.59542 10.843C5.50887 10.8432 5.42312 10.8265 5.34306 10.7936C5.26301 10.7606 5.19023 10.7123 5.1289 10.6512L1.16757 6.71641C1.10619 6.65544 1.05741 6.58297 1.02403 6.50315C0.990655 6.42333 0.973325 6.33771 0.973034 6.25119C0.972744 6.16467 0.989497 6.07894 1.02234 5.9989C1.05518 5.91885 1.10347 5.84606 1.16444 5.78467C1.28758 5.6607 1.45493 5.59072 1.62966 5.59014C1.71618 5.58984 1.80191 5.6066 1.88196 5.63944C1.962 5.67228 2.0348 5.72057 2.09618 5.78154L4.92986 8.59754L4.90423 0.973836C4.90364 0.799321 4.97241 0.63172 5.09539 0.507905C5.21838 0.384089 5.38551 0.3142 5.56003 0.313614Z" fill="#B8D3CF"/>
</svg>
