<svg width="16" height="16" viewBox="0 0 16 16" fill="none" xmlns="http://www.w3.org/2000/svg">
<path d="M14.1892 5.51739L10.222 4.94083L8.44859 1.34551C8.40015 1.24708 8.32046 1.16739 8.22203 1.11895C7.97515 0.997076 7.67515 1.09864 7.55171 1.34551L5.77828 4.94083L1.81109 5.51739C1.70171 5.53301 1.60171 5.58458 1.52515 5.6627C1.43259 5.75784 1.38159 5.88583 1.38334 6.01855C1.3851 6.15127 1.43948 6.27786 1.53453 6.37051L4.40484 9.16895L3.72671 13.1205C3.71081 13.2124 3.72098 13.307 3.75608 13.3934C3.79117 13.4798 3.84978 13.5547 3.92526 13.6095C4.00074 13.6644 4.09007 13.6969 4.18312 13.7036C4.27617 13.7102 4.36922 13.6906 4.45171 13.6471L8.00015 11.7815L11.5486 13.6471C11.6455 13.6986 11.758 13.7158 11.8658 13.6971C12.1377 13.6502 12.3205 13.3924 12.2736 13.1205L11.5955 9.16895L14.4658 6.37051C14.5439 6.29395 14.5955 6.19395 14.6111 6.08458C14.6533 5.81114 14.4627 5.55801 14.1892 5.51739Z" fill="#FEC353"/>
</svg>
