<svg width="23" height="23" viewBox="0 0 23 23" fill="none" xmlns="http://www.w3.org/2000/svg">
<path d="M21.0172 7.91775L19.431 6.33154H15.4655L13.8792 7.91775L11.8965 8.3143V10.6936H22.9999V8.3143L21.0172 7.91775Z" fill="#DE4C3C"/>
<path d="M20.3827 7.2832L14.3198 10.6935H23V8.31424L21.0172 7.91769L20.3827 7.2832Z" fill="#D64333"/>
<path d="M6.38805 6.33154C6.11403 6.331 5.85915 6.47192 5.71391 6.7043L3.96552 9.50396L1.27531 10.0421C0.533858 10.1903 9.91379e-05 10.8412 0 11.5974V14.6591H10.3103V6.33154H6.38805Z" fill="#4398D1"/>
<path d="M0 12.2798H10.3103V14.6591H0V12.2798Z" fill="#3E8CC7"/>
<path d="M6.74135 7.91748L5.94824 9.50369H8.7241V7.91748H6.74135Z" fill="#87CED9"/>
<path d="M0 11.4866H2.37931V13.0728H0V11.4866Z" fill="#DEDEDE"/>
<path d="M7.53442 10.6936H8.72408V11.4867H7.53442V10.6936Z" fill="#2A7DB8"/>
<path d="M14.2758 11.883C14.9329 11.883 15.4655 11.3503 15.4655 10.6933C15.4655 10.0363 14.9329 9.50366 14.2758 9.50366C13.6188 9.50366 13.0862 10.0363 13.0862 10.6933C13.0862 11.3503 13.6188 11.883 14.2758 11.883Z" fill="#696969"/>
<path d="M20.6206 11.883C21.2776 11.883 21.8102 11.3503 21.8102 10.6933C21.8102 10.0363 21.2776 9.50366 20.6206 9.50366C19.9635 9.50366 19.4309 10.0363 19.4309 10.6933C19.4309 11.3503 19.9635 11.883 20.6206 11.883Z" fill="#696969"/>
<path d="M4.36191 16.6418C5.45696 16.6418 6.34467 15.7541 6.34467 14.659C6.34467 13.564 5.45696 12.6763 4.36191 12.6763C3.26686 12.6763 2.37915 13.564 2.37915 14.659C2.37915 15.7541 3.26686 16.6418 4.36191 16.6418Z" fill="#696969"/>
<path d="M3.96558 14.2625H4.75868V15.0556H3.96558V14.2625Z" fill="#DEDEDE"/>
<path d="M10.3103 12.6763V14.659H21.8103L23 13.8659V12.6763H10.3103Z" fill="#4398D1"/>
<path d="M17.8448 16.6418C18.9399 16.6418 19.8276 15.7541 19.8276 14.659C19.8276 13.564 18.9399 12.6763 17.8448 12.6763C16.7498 12.6763 15.8621 13.564 15.8621 14.659C15.8621 15.7541 16.7498 16.6418 17.8448 16.6418Z" fill="#696969"/>
<path d="M17.4482 14.2625H18.2414V15.0556H17.4482V14.2625Z" fill="#DEDEDE"/>
<path d="M10.3103 12.6763H11.1034V14.659H10.3103V12.6763Z" fill="#2A7DB8"/>
<path d="M5.92028 13.4463C5.72755 14.9535 4.34954 16.0191 2.8423 15.8265C2.81365 15.8228 2.78509 15.8187 2.75659 15.8141C3.38904 16.7038 4.62291 16.9123 5.51257 16.2799C6.40223 15.6474 6.61077 14.4135 5.97832 13.5239C5.95963 13.4975 5.94025 13.4717 5.92028 13.4463Z" fill="#565657"/>
<path d="M19.4029 13.4692C19.2102 14.9764 17.8322 16.0421 16.325 15.8494C16.2963 15.8457 16.2678 15.8416 16.2393 15.837C16.8717 16.7267 18.1056 16.9352 18.9952 16.3028C19.8849 15.6703 20.0934 14.4365 19.461 13.5468C19.4423 13.5205 19.4229 13.4946 19.4029 13.4692Z" fill="#565657"/>
<path d="M6.9397 9.50369H8.72418V7.91748H8.5259L6.9397 9.50369Z" fill="#71C4D1"/>
<path d="M0 12.2798H2.37931V13.0729H0V12.2798Z" fill="#C7C7C7"/>
</svg>
