<svg width="19" height="19" viewBox="0 0 19 19" fill="none" xmlns="http://www.w3.org/2000/svg">
<g clip-path="url(#clip0)">
<path d="M15.5702 1.69601L11.4734 0.3303C10.8373 0.118228 10.144 0.158112 9.53637 0.441679L5.56897 2.2932H1.63794V17.0346C1.63794 18.1201 2.51792 19.0001 3.60346 19.0001H15.3966C16.4821 19.0001 17.3621 18.1201 17.3621 17.0346V4.18206C17.362 3.0541 16.6402 2.05271 15.5702 1.69601ZM10.0608 2.38754L10.1224 2.32595C10.342 2.10659 10.6694 2.03563 10.9601 2.14447L14.7348 3.55997C15.1443 3.71353 15.3517 4.16994 15.1981 4.57938C15.1717 4.64981 15.1354 4.71611 15.0903 4.7763C14.8826 5.05291 14.5195 5.16273 14.1933 5.04754L10.357 3.69395C9.94467 3.5483 9.7285 3.09595 9.87416 2.68364C9.91351 2.57226 9.9773 2.47108 10.0608 2.38754ZM15.7241 14.5777C15.7241 15.03 15.3575 15.3966 14.9052 15.3966C14.4529 15.3966 14.0862 15.03 14.0862 14.5777V9.17251C14.0862 8.72019 14.4529 8.35354 14.9052 8.35354C15.3575 8.35354 15.7241 8.72019 15.7241 9.17251V14.5777Z" fill="#4398D1"/>
<path d="M1.63794 0H5.56897V2.2931H1.63794V0Z" fill="#DE4C3C"/>
<path d="M2.62085 0H3.27602V0.982759H2.62085V0Z" fill="#D64333"/>
<path d="M3.93115 0H4.58632V0.982759H3.93115V0Z" fill="#D64333"/>
<path d="M15.5702 1.69607L14.5121 1.34326C14.3354 2.00826 14.1459 2.64837 13.9434 3.26357L14.7336 3.5584C15.143 3.71196 15.3504 4.16837 15.1968 4.57781C15.1704 4.64824 15.1341 4.71453 15.089 4.77473C14.8813 5.05133 14.5182 5.16116 14.192 5.04597L13.4058 4.76916C10.3518 12.7151 5.21619 16.2619 1.80176 17.8209C2.1144 18.5372 2.82182 19.0003 3.60348 19.0002H15.3966C16.4821 19.0002 17.3621 18.1202 17.3621 17.0346V4.18212C17.3621 3.05416 16.6403 2.05277 15.5702 1.69607ZM15.7242 14.5777C15.7242 15.0301 15.3575 15.3967 14.9052 15.3967C14.4529 15.3967 14.0862 15.0301 14.0862 14.5777V9.17257C14.0862 8.72026 14.4529 8.35361 14.9052 8.35361C15.3575 8.35361 15.7242 8.72026 15.7242 9.17257V14.5777Z" fill="#3E8CC7"/>
<path d="M3.60352 6.55204V15.7245C3.60352 16.4481 4.19018 17.0348 4.91386 17.0348H11.138C11.8617 17.0348 12.4483 16.4481 12.4483 15.7245V7.46929C12.4483 6.91829 12.1036 6.42617 11.5858 6.23789L8.8449 5.2417H4.91386C4.19018 5.2417 3.60352 5.82837 3.60352 6.55204Z" fill="#87CED9"/>
<path d="M7.80509 7.8623L6.06658 11.7255C5.63453 12.6856 6.06257 13.8141 7.0226 14.2461C7.26862 14.3568 7.53532 14.414 7.80509 14.414C8.85787 14.4142 9.7114 13.5608 9.71152 12.508C9.71156 12.2382 9.65432 11.9715 9.54359 11.7255L7.80509 7.8623Z" fill="#FA962A"/>
</g>
<defs>
<clipPath>
<rect width="19" height="19" fill="white"/>
</clipPath>
</defs>
</svg>
