<svg width="21" height="21" viewBox="0 0 21 21" fill="none" xmlns="http://www.w3.org/2000/svg">
<g clip-path="url(#clip0)">
<path d="M2.17241 15.2069H0.724138V11.9483L0 10.8621V9.7759L0.724138 8.6897H2.17241V15.2069Z" fill="#DE4C3C"/>
<path d="M2.17236 11.2241H3.62064V12.6724H2.17236V11.2241Z" fill="#D64333"/>
<path d="M6.87915 3.62061H14.1205V5.06888H6.87915V3.62061Z" fill="#4398D1"/>
<path d="M12.3103 3.62061H14.1206V5.06888H12.3103V3.62061Z" fill="#3E8CC7"/>
<path d="M9.77588 5.06885H11.2242V6.51712H9.77588V5.06885Z" fill="#3E8CC7"/>
<path d="M15.2068 8.68975L13.7586 6.51733H7.2413L5.79302 8.68975H3.62061V15.207H5.79302L7.2413 17.3794H17.7413V15.207V8.68975H15.2068Z" fill="#4398D1"/>
<path d="M15.2069 8.6896L14.5679 7.7312C12.6043 11.1808 9.81815 14.0913 6.45752 16.2036L7.2414 17.3793H17.7414V8.6896H15.2069Z" fill="#3E8CC7"/>
<path d="M21 15.9311L20.2759 16.6552H19.1897V9.41382H20.2759L21 10.138V15.9311Z" fill="#4398D1"/>
<path d="M17.7415 11.5862H19.1897V13.7586H17.7415V11.5862Z" fill="#3E8CC7"/>
<path d="M13.3966 11.5863H11.2242L11.9483 8.32764L7.60352 12.3104H9.77593L9.05179 15.569L13.3966 11.5863Z" fill="#FDB62F"/>
<path d="M15.9309 8.6897H16.655V17.3793H15.9309V8.6897Z" fill="#2A7DB8"/>
<path d="M4.70679 11.2241H5.43092V14.1207H4.70679V11.2241Z" fill="#60AADB"/>
<path d="M4.70679 9.77588H5.43092V10.5H4.70679V9.77588Z" fill="#60AADB"/>
</g>
<defs>
<clipPath>
<rect width="21" height="21" fill="white"/>
</clipPath>
</defs>
</svg>
