<svg width="21" height="21" viewBox="0 0 21 21" fill="none" xmlns="http://www.w3.org/2000/svg">
<path d="M12.4575 12.9917H20.288V15.4832H12.4575V12.9917Z" fill="#2A7DB8"/>
<path d="M5.99888 7.29639C5.5945 7.29639 5.22482 7.52485 5.04392 7.88652L3.55932 10.8557L1.14468 11.3387C0.479174 11.4717 8.89831e-05 12.056 0 12.7347V15.4828H9.61017V7.29639H5.99888Z" fill="#4398D1"/>
<path d="M16.3729 17.6188C17.5524 17.6188 18.5085 16.6627 18.5085 15.4832C18.5085 14.3038 17.5524 13.3477 16.3729 13.3477C15.1934 13.3477 14.2373 14.3038 14.2373 15.4832C14.2373 16.6627 15.1934 17.6188 16.3729 17.6188Z" fill="#5E5E5F"/>
<path d="M16.3728 16.1947C16.7659 16.1947 17.0846 15.876 17.0846 15.4829C17.0846 15.0897 16.7659 14.771 16.3728 14.771C15.9796 14.771 15.6609 15.0897 15.6609 15.4829C15.6609 15.876 15.9796 16.1947 16.3728 16.1947Z" fill="#EBEBEB"/>
<path d="M6.40691 8.72021L5.33911 10.8558H8.18657V8.72021H6.40691Z" fill="#87CED9"/>
<path d="M9.25434 5.87305H11.3899C11.7831 5.87305 12.1018 6.19174 12.1018 6.58491C12.1018 6.97808 11.7831 7.29678 11.3899 7.29678H9.25434C8.86117 7.29678 8.54248 6.97808 8.54248 6.58491C8.54248 6.19174 8.86117 5.87305 9.25434 5.87305Z" fill="#DE4C3C"/>
<path d="M19.9486 10.5H19.204C18.6233 10.5001 18.1525 10.0294 18.1523 9.44879C18.1523 9.09713 18.328 8.76874 18.6206 8.57369L19.2204 8.17398V4.27118C19.2204 4.1729 19.1407 4.09321 19.0424 4.09321C18.9441 4.09321 18.8644 4.1729 18.8644 4.27118V4.80508H18.1526V4.27118C18.1526 3.77972 18.5509 3.38135 19.0424 3.38135C19.5338 3.38135 19.9322 3.77972 19.9322 4.27118V8.3644C19.9322 8.48337 19.8728 8.59451 19.7738 8.66053L19.0157 9.16596C18.8596 9.26994 18.8174 9.48074 18.9213 9.63681C18.9843 9.73136 19.0904 9.78817 19.204 9.78813H19.9486C20.136 9.78795 20.288 9.63601 20.2882 9.44857V9.07626H21V9.44857C20.9994 10.029 20.529 10.4994 19.9486 10.5Z" fill="#DE4C3C"/>
<path d="M19.9322 4.27118C19.9322 3.77972 19.5339 3.38135 19.0424 3.38135C18.551 3.38135 18.1526 3.77972 18.1526 4.27118V4.80508H18.8645V4.27118C18.8645 4.1729 18.9441 4.09321 19.0424 4.09321C19.1407 4.09321 19.2204 4.1729 19.2204 4.27118V5.87287L19.9322 4.80508V4.27118Z" fill="#BF362C"/>
<path d="M9.61011 11.5679V15.4831H12.8135L13.8813 13.3475H18.8643L19.9321 15.4831H20.644V11.5679H9.61011Z" fill="#4398D1"/>
<path d="M0 12.6353H2.13559V14.059H0V12.6353Z" fill="#EBEBEB"/>
<path d="M7.11865 11.9238H8.54238V12.6357H7.11865V11.9238Z" fill="#2A7DB8"/>
<path d="M4.27109 17.6188C5.45055 17.6188 6.40668 16.6627 6.40668 15.4832C6.40668 14.3038 5.45055 13.3477 4.27109 13.3477C3.09164 13.3477 2.1355 14.3038 2.1355 15.4832C2.1355 16.6627 3.09164 17.6188 4.27109 17.6188Z" fill="#5E5E5F"/>
<path d="M18.8503 3.38135C18.6337 3.38139 18.4284 3.47812 18.2904 3.64509L12.6311 10.4943L13.1693 11.5678H14.593L19.4447 4.63672C19.5302 4.51468 19.5761 4.36928 19.5761 4.22028V4.10709C19.5761 3.70627 19.2511 3.38135 18.8503 3.38135Z" fill="#FDB62F"/>
<path d="M12.6327 10.4941L11.0338 7.29639H9.61011L11.0338 11.5676H11.7457H13.1694L12.6327 10.4941Z" fill="#FDB62F"/>
<path d="M4.27119 16.1947C4.66434 16.1947 4.98306 15.876 4.98306 15.4829C4.98306 15.0897 4.66434 14.771 4.27119 14.771C3.87804 14.771 3.55933 15.0897 3.55933 15.4829C3.55933 15.876 3.87804 16.1947 4.27119 16.1947Z" fill="#EBEBEB"/>
<path d="M9.61011 11.5679H10.322V15.4831H9.61011V11.5679Z" fill="#3E8CC7"/>
<path d="M12.6328 10.4943L13.1696 11.5678H14.3196L13.397 9.56885L12.6328 10.4943Z" fill="#FFA83D"/>
<path d="M8.18639 8.89844L6.22876 10.8561H8.18639V8.89844Z" fill="#71C4D1"/>
<path d="M11.5679 6.58472H8.89841C8.77855 6.58472 8.65989 6.56051 8.5496 6.51353C8.54595 6.53711 8.54359 6.56087 8.54248 6.58472C8.54248 6.97789 8.86117 7.29658 9.25434 7.29658H11.3899C11.7831 7.29658 12.1018 6.97789 12.1018 6.58472C12.1012 6.52915 12.0942 6.47385 12.0808 6.41992C11.9312 6.52706 11.7519 6.58467 11.5679 6.58472Z" fill="#BF362C"/>
</svg>
