<svg width="21" height="21" viewBox="0 0 21 21" fill="none" xmlns="http://www.w3.org/2000/svg">
<g clip-path="url(#clip0)">
<path d="M3.25858 2.17236H14.1206C14.9205 2.17236 15.5689 2.82078 15.5689 3.62064V19.5517C15.5689 20.3515 14.9205 20.9999 14.1206 20.9999H3.25858C2.45872 20.9999 1.8103 20.3515 1.8103 19.5517V3.62064C1.8103 2.82078 2.45872 2.17236 3.25858 2.17236Z" fill="#4398D1"/>
<path d="M5.43115 21.0002H14.1208C14.9207 21.0002 15.5691 20.3518 15.5691 19.5519V10.8623L5.43115 21.0002Z" fill="#3E8CC7"/>
<path d="M11.2241 16.6553H14.1207V19.5518H11.2241V16.6553Z" fill="#D64333"/>
<path d="M14.1206 3.62061H3.25854V19.5516H11.2241L14.1206 16.6551V3.62061Z" fill="#87CED9"/>
<path d="M18.1034 6.87939L15.5689 9.41388L14.1207 10.8622L11.5862 13.3966L11.2241 14.8449L12.6724 14.4828L14.1207 13.0346L15.5689 11.5863L19.1896 7.9656L18.1034 6.87939Z" fill="#FDB62F"/>
<path d="M4.70679 11.9482H10.862V12.6724H4.70679V11.9482Z" fill="#59B3C2"/>
<path d="M4.70679 13.3965H9.77575V14.1206H4.70679V13.3965Z" fill="#59B3C2"/>
<path d="M4.70679 14.8447H9.77575V15.5689H4.70679V14.8447Z" fill="#59B3C2"/>
<path d="M4.70679 16.293H9.77575V17.0171H4.70679V16.293Z" fill="#59B3C2"/>
<path d="M13.0344 8.06638L11.7816 7.64892L10.6498 6.51709H7.09138L5.96897 7.6395L4.34473 8.04466V10.4998H5.49755C5.69375 11.063 6.30927 11.3604 6.87233 11.1642C7.18357 11.0558 7.42829 10.8111 7.53673 10.4998H9.84238C10.0386 11.063 10.6541 11.3604 11.2172 11.1642C11.5284 11.0558 11.7731 10.8111 11.8816 10.4998H13.0344V8.06638ZM6.51714 10.4998C6.31719 10.4998 6.15507 10.3377 6.15507 10.1378C6.15507 9.93782 6.31719 9.77571 6.51714 9.77571C6.71709 9.77571 6.87921 9.93782 6.87921 10.1378C6.87921 10.3377 6.71709 10.4998 6.51714 10.4998ZM10.862 10.4998C10.662 10.4998 10.4999 10.3377 10.4999 10.1378C10.4999 9.93782 10.662 9.77571 10.862 9.77571C11.0619 9.77571 11.224 9.93782 11.224 10.1378C11.224 10.3377 11.0619 10.4998 10.862 10.4998ZM12.3102 9.77571H11.8863C11.8819 9.7634 11.8754 9.75254 11.8707 9.7395C11.8627 9.71923 11.8533 9.70004 11.8443 9.68048C11.8255 9.64038 11.8043 9.60146 11.7809 9.5639C11.77 9.54616 11.7595 9.52769 11.7472 9.5114C11.7169 9.46863 11.6835 9.42812 11.6473 9.3901C11.6397 9.38214 11.6332 9.37309 11.6256 9.36548C11.5808 9.32127 11.5323 9.2809 11.4807 9.24492C11.4663 9.23514 11.4503 9.22681 11.4355 9.2174C11.3961 9.19264 11.3552 9.17042 11.3131 9.15078C11.2932 9.14173 11.2729 9.13376 11.2523 9.12579C11.2098 9.10937 11.1662 9.09579 11.1219 9.08524C11.102 9.08017 11.0828 9.07438 11.0626 9.07076C10.9312 9.04383 10.7957 9.04383 10.6643 9.07076C10.644 9.07438 10.6248 9.08017 10.6049 9.08524C10.5606 9.09579 10.5171 9.10937 10.4746 9.12579C10.4539 9.13376 10.434 9.14173 10.4141 9.15078C10.3718 9.17033 10.3308 9.19255 10.2913 9.2174C10.2765 9.22681 10.2606 9.23514 10.2461 9.24492C10.1945 9.2809 10.146 9.32127 10.1013 9.36548C10.0937 9.37309 10.0871 9.38214 10.0795 9.3901C10.0434 9.42812 10.01 9.46863 9.97961 9.5114C9.96766 9.52842 9.9568 9.54761 9.94593 9.5639C9.92249 9.60146 9.90131 9.64038 9.88257 9.68048C9.87316 9.70004 9.86411 9.71923 9.85614 9.7395C9.85143 9.75145 9.84492 9.76231 9.84057 9.77571H7.54143C7.53709 9.7634 7.53057 9.75254 7.52586 9.7395C7.5179 9.71923 7.50849 9.70004 7.49943 9.68048C7.4807 9.64038 7.45952 9.60146 7.43607 9.5639C7.42521 9.54616 7.41471 9.52769 7.4024 9.5114C7.37203 9.46863 7.33863 9.42812 7.30247 9.3901C7.29486 9.38214 7.28835 9.37309 7.28074 9.36548C7.23598 9.32127 7.18751 9.2809 7.13592 9.24492C7.12143 9.23514 7.1055 9.22681 7.09066 9.2174C7.05128 9.19264 7.01041 9.17042 6.96828 9.15078C6.94836 9.14173 6.92809 9.13376 6.90745 9.12579C6.86495 9.10937 6.82141 9.09579 6.77711 9.08524C6.75719 9.08017 6.738 9.07438 6.71773 9.07076C6.58634 9.04383 6.45084 9.04383 6.31945 9.07076C6.29918 9.07438 6.27999 9.08017 6.26007 9.08524C6.21576 9.09579 6.17222 9.10937 6.12973 9.12579C6.10909 9.13376 6.08918 9.14173 6.06926 9.15078C6.02694 9.17033 5.98594 9.19255 5.94652 9.2174C5.93167 9.22681 5.91574 9.23514 5.90126 9.24492C5.84967 9.2809 5.80119 9.32127 5.75643 9.36548C5.74883 9.37309 5.74231 9.38214 5.73471 9.3901C5.69855 9.42812 5.66515 9.46863 5.63478 9.5114C5.62283 9.52842 5.61197 9.54761 5.60111 9.5639C5.57766 9.60146 5.55648 9.64038 5.53774 9.68048C5.52833 9.70004 5.51928 9.71923 5.51131 9.7395C5.50661 9.75145 5.50009 9.76231 5.49574 9.77571H5.06886V8.61021L6.34009 8.29231L7.39009 7.24231H10.3489L11.3895 8.2829L12.3092 8.58957L12.3102 9.77571Z" fill="#59B3C2"/>
<path d="M4.70703 5.06897H12.6725L12.1294 3.62069L11.5863 2.17241H9.77599V1.08621C9.77599 0.486304 9.28969 0 8.68979 0C8.08989 0 7.60358 0.486304 7.60358 1.08621V2.17241H5.79324L5.25013 3.62069L4.70703 5.06897Z" fill="#DE4C3C"/>
<path d="M16.7612 8.22153L17.2733 7.70947L18.3596 8.79577L17.8475 9.30782L16.7612 8.22153Z" fill="#FA962A"/>
<path d="M11.2241 19.5518L14.1207 16.6553H11.2241V19.5518Z" fill="#59B3C2"/>
<path d="M12.1294 3.62064L11.5863 2.17236H10.8621L7.96558 5.06891H12.6725L12.1294 3.62064Z" fill="#D64333"/>
</g>
<defs>
<clipPath>
<rect width="21" height="21" fill="white"/>
</clipPath>
</defs>
</svg>
