<svg width="19" height="19" viewBox="0 0 19 19" fill="none" xmlns="http://www.w3.org/2000/svg">
<g clip-path="url(#clip0)">
<path d="M0.655273 5.89648H18.3449V17.0344H0.655273V5.89648Z" fill="#87CED9"/>
<path d="M0 3.93066H19V5.89618H0V3.93066Z" fill="#4398D1"/>
<path d="M16.3794 3.93066H19.0001V5.89618H16.3794V3.93066Z" fill="#3E8CC7"/>
<path d="M6.06055 17.0344H18.345V5.89648H17.1985L6.06055 17.0344Z" fill="#71C4D1"/>
<path d="M1.63794 1.96533H3.60346V3.93085H1.63794V1.96533Z" fill="#DEDEDE"/>
<path d="M0 17.0347H19V19.0002H0V17.0347Z" fill="#4398D1"/>
<path d="M15.3967 1.96533H17.3622V3.93085H15.3967V1.96533Z" fill="#DEDEDE"/>
<path d="M12.1206 0H6.22402C5.86216 0 5.56885 0.293312 5.56885 0.655172V3.93103H6.87919V1.31034H12.1206V3.93103H13.4309V0.655172C13.4309 0.293312 13.1376 0 12.7757 0H12.1206Z" fill="#4398D1"/>
<path d="M2.62061 7.8623H16.7068V15.0692H2.62061V7.8623Z" fill="#DEDEDE"/>
<path d="M10.1552 11.1381L10.9742 7.8622L11.138 7.20703L10.4828 7.8622L6.55176 11.7932L8.84486 11.8204L8.02688 15.0691L7.8621 15.7243L8.51728 15.0691L12.4483 11.1381H10.1552Z" fill="#FDB62F"/>
<path d="M5.56903 9.4999H4.91386V8.84473H4.25869V9.4999H3.60352V10.1551H4.25869V10.8102H4.91386V10.1551H5.56903V9.4999Z" fill="#DE4C3C"/>
<path d="M13.4312 9.5H15.3967V10.1552H13.4312V9.5Z" fill="#2A7DB8"/>
<path d="M5.56885 2.94824H6.8792V3.931H5.56885V2.94824Z" fill="#3E8CC7"/>
<path d="M12.1206 2.94824H13.431V3.931H12.1206V2.94824Z" fill="#3E8CC7"/>
<path d="M16.3792 17.0347H18.9998V19.0002H16.3792V17.0347Z" fill="#3E8CC7"/>
<path d="M0.655273 5.89648H18.3449V6.87925H0.655273V5.89648Z" fill="#71C4D1"/>
</g>
<defs>
<clipPath id="clip0">
<rect width="19" height="19" fill="white"/>
</clipPath>
</defs>
</svg>
