<svg width="21" height="21" viewBox="0 0 21 21" fill="none" xmlns="http://www.w3.org/2000/svg">
<g clip-path="url(#clip0)">
<path d="M0 19.4637C4.52586e-05 19.0563 0.161935 18.6656 0.450052 18.3775L6.87931 11.9482L9.05172 14.1207L2.62247 20.5499C2.33439 20.838 1.94368 20.9999 1.53626 21C0.688022 21.0001 0.000181034 20.3127 0 19.4644C0 19.4642 0 19.4639 0 19.4637Z" fill="#DEDEDE"/>
<path d="M8.14643 13.2153L2.06621 19.2956C1.92487 19.4369 1.92487 19.6661 2.06621 19.8075L2.7154 20.4567L9.05161 14.1205L8.14643 13.2153Z" fill="#C7C7C7"/>
<path d="M9.00801 14.0769L6.92322 11.9921C6.43149 11.5003 6.15523 10.8334 6.15527 10.1379C6.15523 9.44249 6.43149 8.77556 6.92322 8.28378L14.4391 0.767948C14.9308 0.276213 15.5978 -4.52531e-05 16.2932 5.56006e-09C16.9886 -4.52531e-05 17.6556 0.276213 18.1474 0.767948L20.2322 2.85274C20.7239 3.34452 21.0001 4.01145 21.0001 4.7069C21.0001 5.40234 20.7239 6.06927 20.2322 6.56105L12.7163 14.0769C12.2245 14.5686 11.5576 14.8449 10.8622 14.8448C10.1667 14.8449 9.49979 14.5686 9.00801 14.0769Z" fill="#4398D1"/>
<path d="M10.8619 13.3966C10.5505 13.3975 10.2517 13.2737 10.0321 13.053L7.94728 10.9682C7.48876 10.5099 7.48858 9.76664 7.94687 9.30812C7.947 9.30799 7.94714 9.30785 7.94728 9.30771L15.4631 1.79189C15.9215 1.33369 16.6644 1.33369 17.1228 1.79189L19.2076 3.87668C19.6661 4.33497 19.6663 5.07821 19.208 5.53672C19.2079 5.53686 19.2078 5.53699 19.2076 5.53713L11.6918 13.053C11.4722 13.2737 11.1734 13.3975 10.8619 13.3966Z" fill="#3E8CC7"/>
<path d="M13.5024 4.96372L14.0145 4.45166L16.5488 6.98601L16.0368 7.49806L13.5024 4.96372Z" fill="#2A7DB8"/>
<path d="M10.606 7.85922L11.118 7.34717L13.6524 9.88151L13.1403 10.3936L10.606 7.85922Z" fill="#2A7DB8"/>
<path d="M17.4543 3.54574C17.0127 3.1052 16.2978 3.1052 15.8561 3.54574L15.313 4.08885C15.1717 4.23023 15.1717 4.45942 15.313 4.60081L16.3992 5.68702C16.5406 5.82836 16.7698 5.82836 16.9112 5.68702L17.4543 5.14392C17.8956 4.70319 17.8961 3.98819 17.4554 3.54687C17.455 3.54647 17.4547 3.5461 17.4543 3.54574ZM16.9424 4.63195L16.6552 4.91907L16.081 4.34483L16.3681 4.05771C16.527 3.89985 16.7835 3.89985 16.9424 4.05771C17.1009 4.21584 17.1013 4.47264 16.9431 4.63118C16.9428 4.63145 16.9426 4.63168 16.9424 4.63195Z" fill="#DEDEDE"/>
<path d="M13.7789 6.15723L13.7383 6.88137C13.9621 6.89426 14.1331 7.08611 14.1202 7.30992C14.1144 7.40935 14.0723 7.50322 14.0019 7.57364L13.7148 7.86076L13.1406 7.28652L13.4277 6.9994L12.9157 6.48743L12.3726 7.03054C12.2313 7.17193 12.2313 7.40112 12.3726 7.5425L13.4588 8.62871C13.6002 8.77005 13.8294 8.77005 13.9708 8.62871L14.5139 8.08561C14.9552 7.64461 14.9554 6.92934 14.5144 6.48802C14.3181 6.29155 14.0562 6.17429 13.7789 6.15867V6.15723Z" fill="#DEDEDE"/>
<path d="M10.7559 9.51968C10.6881 9.45179 10.596 9.41359 10.5 9.41359V8.68945H9.77583V9.41359H9.41376C9.31772 9.41359 9.22566 9.45179 9.15777 9.51968L8.7957 9.88174C8.65436 10.0231 8.65436 10.2523 8.7957 10.3937L10.6061 12.2041C10.7474 12.3454 10.9766 12.3454 11.118 12.2041L11.4801 11.842C11.548 11.7741 11.5862 11.682 11.5862 11.586V10.4998C11.5862 10.4038 11.548 10.3117 11.4801 10.2438L10.7559 9.51968ZM10.862 11.4361L9.56365 10.1377H10.3501L10.862 10.6497V11.4361Z" fill="#DEDEDE"/>
</g>
<defs>
<clipPath>
<rect width="21" height="21" fill="white"/>
</clipPath>
</defs>
</svg>
