<svg width="21" height="21" viewBox="0 0 21 21" fill="none" xmlns="http://www.w3.org/2000/svg">
<g clip-path="url(#clip0)">
<path d="M19.5518 0.724123H8.68973C7.89105 0.722901 7.24268 1.36937 7.24146 2.16805C7.24146 2.1695 7.24146 2.17095 7.24146 2.1724V5.79308C7.24146 6.59294 7.88988 7.24136 8.68973 7.24136H19.5518C20.3505 7.24258 20.9989 6.5961 21.0001 5.79743C21.0001 5.79598 21.0001 5.79453 21.0001 5.79308V2.1724C21.0001 1.37254 20.3517 0.724123 19.5518 0.724123Z" fill="#696969"/>
<path d="M19.5518 0.724121H15.9312C16.731 0.724121 17.3794 1.37254 17.3794 2.1724V5.79309C17.3795 5.89112 17.3697 5.98887 17.3501 6.08491C17.2116 6.75832 16.6187 7.24154 15.9312 7.24136H19.5518C20.3505 7.24258 20.9989 6.59611 21.0001 5.79743C21.0001 5.79598 21.0001 5.79453 21.0001 5.79309V2.1724C21.0001 1.37254 20.3517 0.724121 19.5518 0.724121Z" fill="#5E5E5F"/>
<path d="M7.24146 3.62061H21.0001V4.34474H7.24146V3.62061Z" fill="#535354"/>
<path d="M7.24146 5.06885H21.0001V5.79299H7.24146V5.06885Z" fill="#535354"/>
<path d="M7.24146 2.17236H21.0001V2.8965H7.24146V2.17236Z" fill="#535354"/>
<path d="M19.5518 13.7585H8.68973C7.89105 13.7573 7.24268 14.4038 7.24146 15.2025C7.24146 15.2039 7.24146 15.2054 7.24146 15.2068V18.8275C7.24146 19.6274 7.88988 20.2758 8.68973 20.2758H19.5518C20.3505 20.277 20.9989 19.6305 21.0001 18.8318C21.0001 18.8304 21.0001 18.829 21.0001 18.8275V15.2068C21.0001 14.407 20.3517 13.7585 19.5518 13.7585Z" fill="#696969"/>
<path d="M19.5518 13.7585H15.9312C16.731 13.7585 17.3794 14.407 17.3794 15.2068V18.8275C17.3795 18.9255 17.3697 19.0233 17.3501 19.1193C17.2116 19.7928 16.6187 20.276 15.9312 20.2758H19.5518C20.3505 20.277 20.9989 19.6305 21.0001 18.8319C21.0001 18.8304 21.0001 18.829 21.0001 18.8275V15.2068C21.0001 14.407 20.3517 13.7585 19.5518 13.7585Z" fill="#5E5E5F"/>
<path d="M7.24146 16.6553H21.0001V17.3794H7.24146V16.6553Z" fill="#535354"/>
<path d="M7.24146 18.1035H21.0001V18.8277H7.24146V18.1035Z" fill="#535354"/>
<path d="M7.24146 15.207H21.0001V15.9312H7.24146V15.207Z" fill="#535354"/>
<path d="M18.1036 7.24146H7.24149C6.44281 7.24023 5.79443 7.88671 5.79321 8.68539C5.79321 8.68684 5.79321 8.68828 5.79321 8.68973V12.3104C5.79321 13.1103 6.44163 13.7587 7.24149 13.7587H18.1036C18.9022 13.7599 19.5506 13.1134 19.5518 12.3148C19.5518 12.3133 19.5518 12.3119 19.5518 12.3104V8.68973C19.5518 7.88988 18.9034 7.24146 18.1036 7.24146Z" fill="#5E5E5F"/>
<path d="M18.1034 7.24146H14.4827C15.2825 7.24146 15.9309 7.88988 15.9309 8.68973V12.3104C15.931 12.4085 15.9212 12.5062 15.9016 12.6022C15.7631 13.2757 15.1702 13.7589 14.4827 13.7587H18.1034C18.902 13.7599 19.5504 13.1134 19.5516 12.3148C19.5516 12.3133 19.5516 12.3119 19.5516 12.3104V8.68973C19.5516 7.88988 18.9032 7.24146 18.1034 7.24146Z" fill="#585859"/>
<path d="M5.79321 10.1379H19.5518V10.8621H5.79321V10.1379Z" fill="#535354"/>
<path d="M5.79321 11.5862H19.5518V12.3103H5.79321V11.5862Z" fill="#535354"/>
<path d="M5.79321 8.6897H19.5518V9.41384H5.79321V8.6897Z" fill="#535354"/>
<path d="M7.24134 18.4656C10.2408 18.4656 12.6724 16.034 12.6724 13.0346C12.6724 10.0351 10.2408 7.60352 7.24134 7.60352C4.24186 7.60352 1.8103 10.0351 1.8103 13.0346C1.8103 16.034 4.24186 18.4656 7.24134 18.4656Z" fill="#4398D1"/>
<path d="M7.24138 5.79321C3.24206 5.79321 0 9.03527 0 13.0346C0 17.0339 3.24206 20.276 7.24138 20.276C11.2407 20.276 14.4828 17.0339 14.4828 13.0346C14.4828 9.03527 11.2407 5.79321 7.24138 5.79321ZM7.24138 18.4656C4.24191 18.4656 1.81034 16.0341 1.81034 13.0346C1.81034 10.0351 4.24191 7.60356 7.24138 7.60356C10.2408 7.60356 12.6724 10.0351 12.6724 13.0346C12.6724 16.0341 10.2408 18.4656 7.24138 18.4656Z" fill="#737373"/>
<path d="M9.41368 13.0346L12.3895 11.3165C12.3305 11.1427 12.265 10.9718 12.1904 10.8057L12.1839 10.793C12.1382 10.6927 12.0847 10.5971 12.0329 10.5001C12.001 10.44 11.9735 10.3773 11.9395 10.319L11.9344 10.3107C11.8439 10.1552 11.7463 10.005 11.6415 9.85993C11.5355 9.71316 11.4224 9.57209 11.3022 9.43668L8.32747 11.1518V7.71214H8.31444C8.14318 7.67774 7.96939 7.65059 7.79234 7.63285C7.42588 7.59569 7.05666 7.59569 6.6902 7.63285C6.51785 7.65023 6.34877 7.67702 6.1833 7.70997C6.17389 7.72011 6.16556 7.73169 6.15651 7.74256V11.1518L3.18356 9.43523L3.17378 9.44573C3.0572 9.57788 2.94641 9.71511 2.84285 9.85812C2.73808 10.003 2.64046 10.1532 2.54994 10.3089L2.54487 10.3172C2.45553 10.4712 2.37397 10.6295 2.30047 10.7915L2.29396 10.8042C2.21937 10.9703 2.15289 11.1404 2.09446 11.3147L5.06885 13.0346L2.09229 14.7529C2.15044 14.9272 2.21706 15.0973 2.29215 15.2631L2.29866 15.2758C2.37253 15.4382 2.45399 15.5963 2.54306 15.7501L2.54813 15.7584C2.63865 15.9139 2.73627 16.0641 2.84104 16.2092C2.94704 16.3559 3.06041 16.4972 3.18066 16.6324L6.15506 14.9173V18.357L6.16809 18.3588C6.33935 18.3932 6.51315 18.4203 6.6902 18.4381C7.05666 18.4752 7.42588 18.4752 7.79234 18.4381C7.96939 18.4203 8.14318 18.3932 8.31444 18.3588L8.32747 18.357V14.9173L11.3015 16.6342C11.4218 16.499 11.5351 16.3577 11.6411 16.211C11.7459 16.0662 11.8435 15.9159 11.934 15.7602L11.9391 15.7519C11.9731 15.6932 12.0007 15.6306 12.0325 15.5708C12.0843 15.4738 12.1379 15.3786 12.1835 15.2779L12.19 15.2653C12.2646 15.0994 12.3312 14.9294 12.3899 14.7551L9.41368 13.0346ZM6.51713 13.0346C6.51713 12.6346 6.84132 12.3104 7.24127 12.3104C7.64122 12.3104 7.9654 12.6346 7.9654 13.0346C7.9654 13.4345 7.64122 13.7587 7.24127 13.7587C6.84132 13.7587 6.51713 13.4345 6.51713 13.0346Z" fill="#87CED9"/>
<path d="M12.3897 11.3166C12.3307 11.1428 12.2652 10.9719 12.1906 10.8057L12.1841 10.793C12.1385 10.6927 12.0849 10.5971 12.0331 10.5001C12.0012 10.44 11.9737 10.3773 11.9397 10.3191L11.9346 10.3107C11.9248 10.2941 11.9129 10.2789 11.9031 10.2622L8.46818 12.2742C8.89157 12.9495 8.68736 13.8402 8.01206 14.2636C7.33676 14.687 6.44607 14.4828 6.02267 13.8075C6.0071 13.7827 5.99226 13.7573 5.97823 13.7316L2.53857 15.7447L2.54256 15.7523L2.54763 15.7606C2.63814 15.9161 2.73577 16.0663 2.84054 16.2114C2.94654 16.3581 3.05991 16.4993 3.18016 16.6346L6.15528 14.9173V18.357L6.16831 18.3588C6.33957 18.3932 6.51337 18.4203 6.69042 18.4381C7.05688 18.4752 7.4261 18.4752 7.79256 18.4381C7.96961 18.4203 8.1434 18.3932 8.31466 18.3588L8.32769 18.357V14.9173L11.3017 16.6343C11.422 16.499 11.5354 16.3577 11.6413 16.211C11.7461 16.0662 11.8437 15.9159 11.9343 15.7602L11.9393 15.7519C11.9734 15.6932 12.0009 15.6306 12.0327 15.5709C12.0845 15.4738 12.1381 15.3786 12.1837 15.278L12.1902 15.2653C12.2648 15.0995 12.3315 14.9294 12.3901 14.7551L9.4139 13.0346L12.3897 11.3166Z" fill="#71C4D1"/>
</g>
<defs>
<clipPath id="clip0">
<rect width="21" height="21" fill="white"/>
</clipPath>
</defs>
</svg>
