<svg width="14" height="14" viewBox="0 0 14 14" fill="none" xmlns="http://www.w3.org/2000/svg">
<path d="M6.94336 3.48926C6.59724 3.48926 6.2589 3.59189 5.97111 3.78419C5.68333 3.97648 5.45902 4.24979 5.32657 4.56956C5.19412 4.88933 5.15946 5.2412 5.22699 5.58067C5.29451 5.92013 5.46118 6.23195 5.70592 6.47669C5.95066 6.72144 6.26248 6.88811 6.60195 6.95563C6.94142 7.02316 7.29328 6.9885 7.61305 6.85605C7.93283 6.72359 8.20614 6.49929 8.39843 6.21151C8.59072 5.92372 8.69336 5.58537 8.69336 5.23926C8.69283 4.77529 8.50829 4.33048 8.18021 4.0024C7.85214 3.67433 7.40733 3.48979 6.94336 3.48926ZM6.94336 6.11426C6.7703 6.11426 6.60113 6.06294 6.45724 5.96679C6.31334 5.87065 6.20119 5.73399 6.13496 5.57411C6.06874 5.41422 6.05141 5.23829 6.08517 5.06855C6.11893 4.89882 6.20227 4.74291 6.32464 4.62054C6.44701 4.49817 6.60292 4.41483 6.77265 4.38107C6.94239 4.34731 7.11832 4.36464 7.27821 4.43086C7.43809 4.49709 7.57475 4.60924 7.67089 4.75313C7.76704 4.89703 7.81836 5.0662 7.81836 5.23926C7.81809 5.47124 7.72582 5.69364 7.56178 5.85768C7.39774 6.02172 7.17534 6.11399 6.94336 6.11426Z" fill="#2152C3"/>
<path d="M10.306 1.87344C9.47458 1.0422 8.36469 0.548414 7.19058 0.487375C6.01647 0.426337 4.86136 0.802376 3.9482 1.54292C3.03504 2.28346 2.42856 3.336 2.24581 4.49741C2.06305 5.65882 2.31699 6.84675 2.9586 7.83194L6.26465 12.9073C6.33822 13.0202 6.43882 13.113 6.55731 13.1773C6.67581 13.2415 6.80847 13.2751 6.94325 13.2751C7.07804 13.2751 7.21069 13.2415 7.32919 13.1773C7.44769 13.113 7.54829 13.0202 7.62186 12.9073L10.928 7.83194C11.5234 6.91804 11.7865 5.82726 11.6732 4.74244C11.56 3.65762 11.0773 2.64469 10.306 1.87344ZM10.1949 7.35433L6.94327 12.3459L3.69163 7.35433C2.69632 5.82639 2.90979 3.78162 4.19921 2.49215C4.55956 2.13179 4.98736 1.84593 5.45819 1.65091C5.92902 1.45588 6.43365 1.3555 6.94327 1.3555C7.45289 1.3555 7.95752 1.45588 8.42834 1.65091C8.89917 1.84593 9.32697 2.13179 9.68732 2.49215C10.9767 3.78162 11.1902 5.82639 10.1949 7.35433Z" fill="#2152C3"/>
</svg>
