<svg width="21" height="21" viewBox="0 0 21 21" fill="none" xmlns="http://www.w3.org/2000/svg">
<g clip-path="url(#clip0)">
<path d="M1.88208 19.0209L2.59386 18.3091L3.09723 18.8125L2.38546 19.5242L1.88208 19.0209Z" fill="#FA962A"/>
<path d="M0.92041 17.1368L6.76274 11.2944L10.1134 14.6451L4.27107 20.4874L0.92041 17.1368Z" fill="#FDB62F"/>
<path d="M18.1525 5.03533L16.3728 3.25567L17.0847 2.5438L18.1525 2.18787L18.5084 1.12007L19.726 0.408203L20.9999 1.68921L20.2881 2.89973L19.2203 3.25567L18.8643 4.32347L18.1525 5.03533Z" fill="#DEDEDE"/>
<path d="M6.05078 8.9502L7.83044 7.17054L14.2373 13.5774L12.4576 15.357L6.05078 8.9502Z" fill="#3E8CC7"/>
<path d="M7.83032 10.7305L9.60998 8.95081L12.4575 11.7984L10.6779 13.578L7.83032 10.7305Z" fill="#4398D1"/>
<path d="M12.8135 12.1542L9.25415 8.59485L14.5931 3.25586H16.3728L18.1525 5.03552V6.81519L12.8135 12.1542Z" fill="#87CED9"/>
<path d="M5.69507 10.7305L6.76296 9.6626L11.7461 14.6457L10.6782 15.7136L5.69507 10.7305Z" fill="#F46B27"/>
<path d="M8.30493 13.3403L9.37282 12.2725L11.7457 14.6453L10.6778 15.7132L8.30493 13.3403Z" fill="#DE4C3C"/>
<path d="M1.52797 20.5918L0.355878 19.4197C-0.118626 18.9452 -0.118626 18.1758 0.355878 17.7013L2.9517 15.1055L3.45499 15.6088L0.859167 18.2046C0.662737 18.4012 0.662737 18.7198 0.859167 18.9164L2.03126 20.0885L1.52797 20.5918Z" fill="#FDB62F"/>
<path d="M13.4514 4.39694L13.9548 3.89355L14.8448 4.78352L14.3414 5.2869L13.4514 4.39694Z" fill="#59B3C2"/>
<path d="M12.3835 5.4648L12.8869 4.96143L13.7769 5.85139L13.2735 6.35477L12.3835 5.4648Z" fill="#59B3C2"/>
<path d="M16.1211 7.06539L16.6245 6.56201L17.5144 7.45197L17.011 7.95535L16.1211 7.06539Z" fill="#59B3C2"/>
<path d="M15.0535 8.13472L15.5568 7.63135L16.4468 8.52131L15.9434 9.02469L15.0535 8.13472Z" fill="#59B3C2"/>
<path d="M11.3159 6.53267L11.8193 6.0293L12.7093 6.91926L12.2059 7.42264L11.3159 6.53267Z" fill="#59B3C2"/>
<path d="M13.9856 9.20211L14.489 8.69873L15.3789 9.5887L14.8756 10.0921L13.9856 9.20211Z" fill="#59B3C2"/>
<path d="M10.248 7.59908L10.7514 7.0957L11.6414 7.98567L11.138 8.48905L10.248 7.59908Z" fill="#59B3C2"/>
<path d="M12.9177 10.27L13.4211 9.7666L14.3111 10.6566L13.8077 11.1599L12.9177 10.27Z" fill="#59B3C2"/>
<path d="M3.05591 15.0004L3.55929 14.4971L6.90341 17.8412L6.40003 18.3446L3.05591 15.0004Z" fill="#FA962A"/>
<path d="M4.12354 13.9326L4.62691 13.4292L7.97104 16.7733L7.46766 17.2767L4.12354 13.9326Z" fill="#FA962A"/>
<path d="M1.98804 16.0683L2.49142 15.5649L5.83554 18.9091L5.33216 19.4124L1.98804 16.0683Z" fill="#FA962A"/>
<path d="M5.19141 12.8652L5.69478 12.3618L9.03891 15.7059L8.53553 16.2093L5.19141 12.8652Z" fill="#FA962A"/>
<path d="M5.32471 17.27L5.82808 16.7666L6.90327 17.8418L6.39989 18.3452L5.32471 17.27Z" fill="#FA7D16"/>
<path d="M6.39258 16.2016L6.89595 15.6982L7.97114 16.7734L7.46776 17.2768L6.39258 16.2016Z" fill="#FA7D16"/>
<path d="M4.25684 18.3379L4.76021 17.8345L5.8354 18.9097L5.33202 19.413L4.25684 18.3379Z" fill="#FA7D16"/>
<path d="M7.45996 15.1327L7.96334 14.6294L9.03853 15.7046L8.53515 16.208L7.45996 15.1327Z" fill="#FA7D16"/>
</g>
<defs>
<clipPath id="clip0">
<rect width="21" height="21" fill="white"/>
</clipPath>
</defs>
</svg>
