<svg width="23" height="23" viewBox="0 0 23 23" fill="none" xmlns="http://www.w3.org/2000/svg">
<path d="M16.7741 0H6.22588C2.79287 0 0 2.79287 0 6.22588V16.7743C0 20.2071 2.79287 23 6.22588 23H16.7743C20.2071 23 23 20.2071 23 16.7743V6.22588C23 2.79287 20.2071 0 16.7741 0V0ZM21.6516 16.7743C21.6516 19.4636 19.4636 21.6516 16.7741 21.6516H6.22588C3.53636 21.6516 1.34836 19.4636 1.34836 16.7743V6.22588C1.34836 3.53636 3.53636 1.34836 6.22588 1.34836H16.7743C19.4636 1.34836 21.6516 3.53636 21.6516 6.22588V16.7743Z" fill="white"/>
<path d="M11.5001 5.21094C8.03231 5.21094 5.21118 8.03206 5.21118 11.4998C5.21118 14.9676 8.03231 17.7887 11.5001 17.7887C14.9678 17.7887 17.7889 14.9676 17.7889 11.4998C17.7889 8.03206 14.9678 5.21094 11.5001 5.21094ZM11.5001 16.4403C8.77597 16.4403 6.55954 14.2241 6.55954 11.4998C6.55954 8.77573 8.77597 6.55929 11.5001 6.55929C14.2243 6.55929 16.4406 8.77573 16.4406 11.4998C16.4406 14.2241 14.2243 16.4403 11.5001 16.4403Z" fill="white"/>
<path d="M17.9391 2.97754C16.9143 2.97754 16.0808 3.81122 16.0808 4.83583C16.0808 5.8606 16.9143 6.69429 17.9391 6.69429C18.9639 6.69429 19.7976 5.8606 19.7976 4.83583C19.7976 3.81105 18.9639 2.97754 17.9391 2.97754ZM17.9391 5.34576C17.658 5.34576 17.4292 5.11694 17.4292 4.83583C17.4292 4.55454 17.658 4.32589 17.9391 4.32589C18.2204 4.32589 18.4492 4.55454 18.4492 4.83583C18.4492 5.11694 18.2204 5.34576 17.9391 5.34576Z" fill="white"/>
</svg>
