<svg width="25" height="25" viewBox="0 0 25 25" fill="none" xmlns="http://www.w3.org/2000/svg">
<path d="M18.75 10.1562H17.1875C17.1869 9.53484 16.9398 8.93906 16.5003 8.49965C16.0609 8.06025 15.4652 7.81312 14.8438 7.8125V6.25C15.8794 6.25124 16.8722 6.66319 17.6045 7.39548C18.3368 8.12778 18.7488 9.12063 18.75 10.1562Z" fill="#2C64E5"/>
<path d="M21.875 10.1562H20.3125C20.3108 8.70636 19.7341 7.31632 18.7089 6.29109C17.6837 5.26586 16.2936 4.68915 14.8438 4.6875V3.125C16.7079 3.12707 18.4951 3.86852 19.8133 5.18669C21.1315 6.50486 21.8729 8.29208 21.875 10.1562Z" fill="#2C64E5"/>
<path d="M15.8851 16.7828L17.6351 15.0328C17.8694 14.7985 18.1672 14.6381 18.4918 14.5714C18.8163 14.5048 19.1533 14.5348 19.4609 14.6578L21.5922 15.5109C21.9063 15.6366 22.1756 15.8536 22.3652 16.1337C22.5549 16.4139 22.6562 16.7445 22.6562 17.0828V20.9586C22.6568 21.189 22.6103 21.417 22.5197 21.6288C22.429 21.8406 22.2961 22.0316 22.1291 22.1902C21.962 22.3489 21.7644 22.4718 21.5482 22.5513C21.332 22.6309 21.1019 22.6656 20.8719 22.6531C5.9328 21.7234 2.91561 9.07032 2.35545 4.22501C2.32832 3.98813 2.35165 3.74819 2.4239 3.52097C2.49615 3.29376 2.61569 3.08441 2.77465 2.90671C2.93361 2.729 3.12839 2.58696 3.34618 2.48994C3.56397 2.39291 3.79984 2.34309 4.03827 2.34376H7.8453C8.18363 2.34375 8.51421 2.44511 8.79439 2.63477C9.07456 2.82443 9.29149 3.09369 9.41717 3.40782L10.2695 5.53907C10.3925 5.84671 10.4226 6.18367 10.3559 6.50821C10.2892 6.83275 10.1288 7.1306 9.89452 7.36485L8.14452 9.11485C8.14452 9.11485 9.11483 15.9367 15.8851 16.7828Z" fill="#2C64E5"/>
</svg>
