<svg width="20" height="20" viewBox="0 0 20 20" fill="none" xmlns="http://www.w3.org/2000/svg">
<g clip-path="url(#clip0)">
<path d="M4.85195 20.0004C3.5743 20.0005 2.36774 19.4942 1.43685 18.5633C0.462121 17.5886 -0.0470184 16.3114 0.00313776 14.9671C0.0549736 13.5787 0.682199 12.245 1.81704 11.1101L3.86032 9.05853C4.16477 8.75279 4.65942 8.75177 4.96516 9.05627C5.27086 9.36072 5.27191 9.85541 4.96742 10.1611L2.92305 12.2139C1.26638 13.8706 1.11005 16.0268 2.54176 17.4585C3.97352 18.8903 6.12973 18.7339 7.78519 17.0783L10.5933 14.2702C11.4444 13.4191 11.9138 12.4473 11.9506 11.4599C11.9844 10.5548 11.6374 9.69072 10.9735 9.02681C10.751 8.80439 10.5049 8.61564 10.2419 8.46584C9.86694 8.25228 9.73612 7.77521 9.94968 7.40033C10.1633 7.02541 10.6403 6.89463 11.0152 7.10814C11.3995 7.32705 11.7572 7.60088 12.0783 7.92201C13.0531 8.89674 13.5622 10.1739 13.5121 11.5182C13.4602 12.9066 12.833 14.2404 11.6982 15.3752L8.89007 18.1832C7.75519 19.3181 6.42152 19.9453 5.03313 19.9971C4.97266 19.9993 4.91215 20.0004 4.85195 20.0004ZM10.0499 12.6006C10.2635 12.2257 10.1326 11.7486 9.75772 11.5351C9.49472 11.3853 9.24855 11.1965 9.02612 10.9742C7.59441 9.5424 7.75074 7.38619 9.40628 5.73065L12.2144 2.92261C13.8699 1.2671 16.0261 1.11073 17.4578 2.54245C18.8895 3.97417 18.7332 6.13037 17.0765 7.78705L15.0321 9.83982C14.7276 10.1455 14.7287 10.6402 15.0344 10.9447C15.3401 11.2492 15.8347 11.2481 16.1392 10.9424L18.1825 8.89076C19.3174 7.75592 19.9445 6.42221 19.9964 5.03385C20.0466 3.68952 19.5374 2.41233 18.5627 1.43761C17.5879 0.462844 16.3101 -0.0462175 14.9665 0.00386056C13.5781 0.0556964 12.2444 0.682922 11.1096 1.81776L8.30144 4.62581C7.1666 5.76065 6.53941 7.09436 6.48754 8.48271C6.43738 9.82705 6.94652 11.1042 7.92124 12.079C8.24238 12.4001 8.60007 12.6739 8.98441 12.8928C9.10644 12.9623 9.23925 12.9954 9.37034 12.9954C9.64194 12.9953 9.90585 12.8534 10.0499 12.6006Z" fill="black"/>
</g>
<defs>
<clipPath id="clip0">
<rect width="20" height="20" fill="white"/>
</clipPath>
</defs>
</svg>
