<svg width="76" height="33" viewBox="0 0 76 33" fill="none" xmlns="http://www.w3.org/2000/svg">
<path fill-rule="evenodd" clip-rule="evenodd" d="M0.857716 24.614H68.9236L72.6914 28.792L67.9434 32.9701L0 33.0001L0.857716 24.614Z" fill="#E40044"/>
<path fill-rule="evenodd" clip-rule="evenodd" d="M76 0.297119L75.1729 8.50289L66.657 8.47283L66.8714 6.45896H62.6747L61.6332 16.7688L65.8605 16.7988L66.1056 14.7248L74.5602 14.6948L73.6719 22.9907L52.6272 22.9607L54.894 0.297119H76Z" fill="black"/>
<path fill-rule="evenodd" clip-rule="evenodd" d="M52.6268 0.297119L50.2987 23.0208L41.9054 23.0508L43.5902 6.48902H39.3322L37.678 23.0208L29.3459 22.9907L31.6434 0.297119H52.6268Z" fill="black"/>
<path fill-rule="evenodd" clip-rule="evenodd" d="M18.7783 6.48902H15.7456L12.6517 16.7988H17.7674L18.7783 6.48902ZM26.1301 16.8289H27.8149L27.1716 23.0208H25.4868H2.94115V22.9907H1.25635L1.869 16.7988H4.28899L9.28212 0.297119H27.8149L26.1301 16.8289Z" fill="black"/>
<path fill-rule="evenodd" clip-rule="evenodd" d="M44.6625 27.6193H45.6122L45.5203 28.4609H44.5706L44.6625 27.6193ZM44.4175 30.0239H47.3276L47.7258 26.2066H42.8859L42.3651 31.4366H44.295L44.4175 30.0239ZM63.1953 30.0239H64.1449L64.2368 29.1823H63.2872L63.1953 30.0239ZM63.4098 27.7696H66.3199L65.9523 31.4667H61.1123L61.6331 26.2066H63.5629L63.4098 27.7696ZM59.1212 26.2066L60.0402 31.4366H58.1103L57.6508 28.7014L56.6399 31.4366H55.2002L57.1913 26.2066H59.1212ZM52.0757 27.6193H51.0954L50.8504 29.9938H51.8306L52.0757 27.6193ZM54.1587 26.2066L53.6073 31.4366H48.7673L49.2881 26.2066H54.1587ZM37.4332 31.4366L37.8315 27.6193H36.3304L36.4836 26.2066H37.9846H39.9145H41.2929L41.1398 27.6193H39.7613L39.6694 28.6412V28.7615L39.6388 28.9118L39.3937 31.4066L37.4332 31.4366ZM35.2277 26.2066L34.7069 31.4366H32.7771L32.9609 29.5129H32.8996H32.0419H31.9806L31.7968 31.4066H29.8669L30.3877 26.1765H32.3176L32.1644 27.5892L32.1031 28.0702H33.0834L33.1446 27.5892L33.2978 26.1765H35.2277V26.2066ZM26.7118 27.6193H25.7315L25.4865 29.9938H26.4667L26.7118 27.6193ZM28.7948 26.2066L28.2434 31.4366H23.4034L23.9242 26.2066H28.7948ZM16.9706 31.4366L17.4913 26.1765H19.4518L19.268 28.1002L20.4321 26.1765H22.3926L21.1979 28.1002H22.1781L21.8412 31.4366H19.9113L20.0951 29.543H19.0842L18.9004 31.4366H16.9706ZM14.3974 29.9938H15.9291L15.7759 31.4366H14.2443L14.3974 29.9938ZM11.7018 27.6193L11.6405 28.2505L11.4567 29.9938H13.1721L13.019 31.4366H9.37367L9.89442 26.2066H11.8243L11.7018 27.6193ZM4.41117 31.4366L3.49219 26.2066H5.42205L5.88154 28.9418L6.89242 26.2066H8.33216L6.34103 31.4366H4.41117Z" fill="white"/>
</svg>
